<?xml version="1.0" standalone="no"?>
<!DOCTYPE svg PUBLIC "-//W3C//DTD SVG 20010904//EN"
 "http://www.w3.org/TR/2001/REC-SVG-20010904/DTD/svg10.dtd">
<svg version="1.0" xmlns="http://www.w3.org/2000/svg"
 width="1em" height="1em" viewBox="0 0 816.000000 1058.000000"
 preserveAspectRatio="xMidYMid meet">

<g transform="translate(0.000000,1058.000000) scale(0.100000,-0.100000)"
fill="#000000" stroke="none">
<path d="M1412 10553 c764 -2 2012 -2 2775 0 764 1 139 2 -1387 2 -1526 0
-2151 -1 -1388 -2z"/>
<path d="M5618 10553 c7 -3 16 -2 19 1 4 3 -2 6 -13 5 -11 0 -14 -3 -6 -6z"/>
<path d="M6012 10553 c201 -2 534 -2 740 0 205 1 40 2 -367 2 -407 0 -575 -1
-373 -2z"/>
<path d="M7158 10553 c12 -2 32 -2 45 0 12 2 2 4 -23 4 -25 0 -35 -2 -22 -4z"/>
<path d="M7498 10553 c117 -2 306 -2 420 0 114 1 18 2 -213 2 -231 0 -324 -1
-207 -2z"/>
<path d="M7200 10046 c0 -7 7 -19 16 -26 13 -12 8 -20 -40 -69 -55 -55 -69
-81 -44 -81 7 0 39 26 71 58 53 52 59 55 71 40 15 -21 36 -24 36 -6 0 16 -81
98 -97 98 -7 0 -13 -6 -13 -14z"/>
<path d="M593 9960 c-120 -73 -55 -253 86 -237 36 4 52 13 78 41 100 109 -37
274 -164 196z m117 -37 c35 -23 40 -33 40 -73 -1 -54 -39 -90 -95 -90 -38 0
-85 50 -85 90 0 22 9 41 29 61 34 33 74 38 111 12z"/>
<path d="M800 9965 c-11 -13 -11 -19 3 -32 21 -21 49 -9 45 19 -4 28 -30 35
-48 13z"/>
<path d="M890 9849 c0 -119 2 -130 18 -127 13 2 18 15 20 56 3 53 3 53 34 50
26 -2 37 -12 57 -47 14 -24 36 -47 49 -52 30 -11 29 6 -3 53 -29 43 -31 54
-10 62 25 9 38 55 25 87 -15 36 -49 49 -125 49 l-65 0 0 -131z m144 75 c32
-32 9 -54 -56 -54 l-48 0 0 35 c0 35 0 35 44 35 27 0 51 -6 60 -16z"/>
<path d="M1134 9967 c-2 -7 -3 -65 -2 -128 l3 -114 85 0 c78 0 85 2 85 20 0
13 -7 20 -20 21 -11 0 -42 1 -68 2 -46 2 -48 3 -45 30 3 26 6 27 66 30 53 3
62 6 62 22 0 16 -9 19 -62 22 -63 3 -63 3 -63 33 l0 30 68 3 c59 3 67 5 67 22
0 18 -7 20 -85 20 -61 0 -87 -4 -91 -13z"/>
<path d="M1360 9856 c0 -120 1 -126 20 -126 20 0 20 5 18 122 -3 108 -5 123
-20 126 -16 3 -18 -8 -18 -122z"/>
<path d="M1444 9967 c-3 -8 -4 -65 -2 -128 l3 -114 50 -3 c66 -4 115 5 115 23
0 16 -57 30 -95 23 l-24 -5 -3 106 c-3 92 -5 106 -21 109 -9 2 -20 -3 -23 -11z"/>
<path d="M1650 9850 l0 -131 78 3 c69 3 77 5 77 23 0 11 -7 20 -15 21 -8 1
-34 2 -57 2 l-42 2 -3 102 c-3 89 -5 103 -20 106 -16 3 -18 -8 -18 -128z"/>
<path d="M1780 9969 c0 -6 18 -36 40 -66 36 -50 40 -63 40 -115 0 -56 1 -58
26 -58 26 0 26 1 22 51 -5 48 -2 56 38 117 49 72 52 82 26 82 -10 0 -32 -20
-50 -45 -17 -25 -35 -45 -39 -45 -5 0 -21 20 -36 45 -18 28 -36 45 -48 45 -10
0 -19 -5 -19 -11z"/>
<path d="M7266 9881 c-40 -41 -66 -74 -61 -80 4 -8 20 0 46 24 44 40 51 41 73
19 22 -21 21 -23 -21 -66 -25 -25 -34 -41 -27 -48 7 -7 24 5 53 34 36 37 42
49 37 71 -4 14 -18 31 -31 37 l-25 11 22 24 c14 15 18 27 12 33 -6 6 -34 -14
-78 -59z"/>
<path d="M6855 9870 l-70 -70 43 -42 c33 -34 44 -40 54 -30 10 10 7 18 -15 38
-30 27 -31 41 -5 57 11 8 21 5 39 -11 24 -23 32 -26 42 -15 4 4 -5 19 -19 34
-23 24 -25 31 -14 44 17 20 23 19 54 -12 20 -20 29 -24 38 -15 9 9 3 21 -27
52 -21 22 -42 40 -45 40 -3 0 -37 -32 -75 -70z"/>
<path d="M7434 9819 c-3 -6 -2 -15 4 -21 13 -13 32 -2 32 18 0 16 -26 19 -36
3z"/>
<path d="M7362 9741 c-42 -39 -50 -51 -39 -59 10 -9 24 0 62 38 67 68 48 85
-23 21z"/>
<path d="M6945 9755 c-32 -31 -33 -78 -2 -105 12 -12 30 -28 40 -38 17 -15 22
-12 89 55 59 59 69 73 55 79 -11 4 -26 -1 -38 -12 -17 -16 -22 -16 -29 -4 -6
8 -10 18 -10 21 0 8 -48 29 -66 29 -8 0 -26 -11 -39 -25z m77 -22 c25 -22 23
-50 -6 -68 -34 -23 -66 -5 -66 35 0 44 39 63 72 33z"/>
<path d="M7406 9691 c-55 -56 -47 -82 10 -32 26 23 41 30 58 25 32 -8 44 14
14 25 -13 4 -22 12 -20 17 10 25 -19 9 -62 -35z"/>
<path d="M7156 9703 c-12 -12 -6 -33 9 -33 8 0 15 6 15 14 0 17 -14 28 -24 19z"/>
<path d="M7071 9616 c-26 -27 -40 -49 -36 -56 5 -8 23 4 56 36 27 27 49 52 49
56 0 20 -29 4 -69 -36z"/>
<path d="M7476 9639 c-34 -27 -36 -80 -3 -109 12 -12 29 -28 38 -36 15 -14 23
-8 87 54 54 52 68 72 60 80 -9 9 -18 6 -39 -14 l-26 -25 -7 24 c-5 22 -42 47
-70 47 -7 0 -25 -9 -40 -21z m78 -25 c23 -23 20 -51 -8 -69 -34 -23 -66 -5
-66 35 0 44 44 65 74 34z"/>
<path d="M7153 9618 c-2 -5 -2 -12 1 -17 3 -4 -6 -19 -20 -32 -39 -36 -46 -55
-32 -79 18 -29 40 -26 32 5 -5 19 0 30 23 49 17 15 32 21 38 15 17 -17 27 -9
21 15 -3 14 -1 28 4 31 6 4 8 10 5 15 -7 11 -65 8 -72 -2z"/>
<path d="M7270 9565 c0 -8 9 -15 20 -15 11 0 20 7 20 15 0 8 -9 15 -20 15 -11
0 -20 -7 -20 -15z"/>
<path d="M7196 9491 c-32 -33 -44 -51 -36 -56 14 -8 112 83 104 97 -9 15 -19
9 -68 -41z"/>
<path d="M7265 9469 c-80 -45 -46 -146 48 -140 27 2 57 38 57 70 0 55 -60 95
-105 70z m56 -29 c26 -14 24 -55 -3 -74 -19 -13 -25 -14 -43 -2 -27 18 -31 43
-9 67 20 22 28 23 55 9z"/>
<path d="M7372 9327 c-38 -38 -53 -67 -36 -67 4 0 22 14 41 30 39 34 68 38 82
12 8 -15 3 -25 -24 -52 -37 -35 -45 -60 -21 -60 16 0 86 77 86 95 0 18 -30 55
-46 55 -8 0 -14 7 -14 15 0 26 -25 16 -68 -28z"/>
<path d="M3514 9172 c-69 -24 -124 -70 -160 -134 -26 -47 -29 -63 -29 -138 0
-76 3 -91 30 -139 116 -210 429 -195 527 27 30 67 27 168 -6 237 -66 133 -220
196 -362 147z m181 -91 c52 -23 102 -81 111 -126 10 -55 -1 -133 -23 -163 -41
-55 -90 -85 -147 -90 -154 -13 -257 111 -216 260 31 111 166 169 275 119z"/>
<path d="M600 8900 l0 -280 45 0 45 0 0 120 0 120 120 0 120 0 0 -120 0 -120
45 0 45 0 0 280 0 280 -45 0 -45 0 0 -115 0 -115 -120 0 -120 0 0 115 0 115
-45 0 -45 0 0 -280z"/>
<path d="M2407 9173 c-4 -3 -7 -51 -7 -106 l0 -99 -30 26 c-38 31 -108 43
-163 26 -79 -23 -147 -116 -147 -200 0 -166 204 -274 318 -168 12 13 23 16 23
10 1 -7 2 -18 3 -24 0 -8 19 -14 44 -16 l42 -3 0 280 0 281 -38 0 c-21 0 -42
-3 -45 -7z m-73 -238 c60 -29 85 -118 51 -184 -41 -81 -177 -75 -223 10 -18
33 -10 114 14 140 41 46 104 59 158 34z"/>
<path d="M1230 9014 c-77 -33 -123 -106 -123 -194 0 -165 170 -264 303 -176
l40 26 0 -25 c0 -23 4 -25 40 -25 l40 0 0 200 0 200 -40 0 c-37 0 -40 -2 -40
-27 0 -24 -1 -25 -18 -10 -49 45 -138 59 -202 31z m169 -92 c58 -43 64 -140
12 -193 -76 -75 -204 -30 -217 77 -14 110 115 183 205 116z"/>
<path d="M1774 9016 c-18 -8 -35 -19 -38 -25 -11 -17 -27 -13 -24 7 2 14 -5
18 -39 20 l-43 3 0 -201 0 -201 43 3 42 3 5 138 c5 137 5 139 33 163 46 39
123 27 146 -23 6 -13 11 -80 11 -153 l0 -130 45 0 45 0 0 128 c0 139 -11 194
-43 231 -44 48 -121 64 -183 37z"/>
<path d="M2654 9016 c-47 -21 -74 -62 -74 -111 0 -55 34 -90 109 -111 71 -20
101 -39 101 -64 0 -45 -91 -55 -134 -15 -26 24 -27 24 -61 8 -19 -9 -35 -20
-35 -23 0 -3 14 -20 31 -38 66 -67 204 -70 263 -4 10 12 21 41 23 66 5 41 3
48 -28 79 -24 23 -56 40 -105 55 -61 19 -84 34 -84 57 0 2 7 11 16 19 22 23
80 20 104 -4 19 -19 21 -19 55 -3 19 9 35 20 35 23 0 3 -13 18 -28 33 -47 45
-127 59 -188 33z"/>
<path d="M4134 9016 c-18 -8 -35 -19 -38 -25 -11 -18 -26 -13 -26 9 0 17 -7
20 -40 20 l-40 0 0 -200 0 -200 39 0 39 0 4 136 3 136 33 29 c41 37 89 39 129
5 28 -24 28 -25 31 -165 l4 -141 39 0 39 0 0 154 c0 142 -2 155 -23 187 -41
62 -123 85 -193 55z"/>
<path d="M2932 8863 l3 -38 148 -3 147 -3 0 41 0 40 -151 0 -150 0 3 -37z"/>
<path d="M2642 8374 c-24 -17 -30 -62 -10 -82 20 -20 65 -14 82 10 19 27 20
39 4 60 -20 25 -51 30 -76 12z"/>
<path d="M6022 8374 c-41 -28 -22 -94 28 -94 28 0 60 30 60 55 0 38 -55 62
-88 39z"/>
<path d="M600 8100 l0 -280 45 0 45 0 2 195 3 194 80 -131 c44 -72 85 -133 90
-135 6 -1 46 56 90 127 44 72 83 130 87 130 5 0 8 -85 8 -190 l0 -190 45 0 45
0 -2 278 -3 277 -47 3 -46 3 -88 -142 c-72 -116 -89 -139 -98 -126 -6 9 -29
46 -51 82 -120 197 -110 185 -160 185 l-45 0 0 -280z"/>
<path d="M2177 8374 c-4 -4 -7 -130 -7 -281 l0 -273 45 0 45 0 0 129 c0 124 1
131 25 159 32 38 72 48 119 28 44 -18 47 -30 49 -192 l2 -119 43 -3 42 -3 0
140 c0 163 -11 203 -66 241 -49 33 -130 34 -173 2 -17 -12 -32 -22 -35 -22 -3
0 -7 44 -8 98 l-3 97 -35 3 c-20 2 -39 0 -43 -4z"/>
<path d="M3957 8373 c-4 -3 -7 -129 -7 -280 l0 -273 160 0 160 0 0 40 0 39
-112 3 -113 3 -3 238 -2 237 -39 0 c-20 0 -41 -3 -44 -7z"/>
<path d="M1372 8220 c-149 -36 -204 -252 -91 -357 63 -57 171 -70 233 -28 44
30 46 30 46 5 0 -17 7 -20 45 -20 l45 0 -2 198 -3 197 -40 0 c-34 0 -40 -3
-43 -22 l-3 -22 -37 23 c-42 28 -102 38 -150 26z m134 -96 c51 -34 68 -106 39
-168 -46 -96 -199 -84 -233 18 -16 51 -1 106 39 140 37 31 114 36 155 10z"/>
<path d="M1874 8219 c-95 -22 -162 -120 -151 -224 15 -144 167 -228 303 -166
36 16 84 62 84 80 0 4 -17 15 -37 25 -33 16 -37 16 -45 2 -12 -22 -62 -46 -93
-46 -41 0 -94 29 -110 61 -20 37 -19 104 1 135 39 59 131 72 184 27 31 -25 32
-26 66 -10 19 9 34 20 34 25 0 20 -71 74 -115 88 -54 16 -62 16 -121 3z"/>
<path d="M2975 8220 c-17 -5 -40 -18 -52 -29 l-22 -21 -3 23 c-3 19 -9 22 -43
22 l-40 0 -3 -197 -2 -198 45 0 45 0 0 125 c0 146 10 177 65 195 42 14 100 -1
115 -30 6 -10 10 -80 10 -154 l0 -136 46 0 45 0 -3 154 c-3 138 -5 158 -24
182 -44 60 -113 84 -179 64z"/>
<path d="M3395 8216 c-59 -18 -93 -44 -119 -90 -48 -84 -41 -174 20 -245 46
-53 104 -75 188 -69 52 3 74 10 108 33 23 17 43 35 45 40 2 6 -12 19 -31 29
-34 18 -35 18 -62 -3 -50 -39 -167 -22 -194 28 -21 39 -15 41 150 41 l160 0 0
33 c0 95 -58 177 -143 202 -59 18 -69 18 -122 1z m147 -105 c50 -56 42 -61
-87 -61 -119 0 -125 3 -104 41 35 65 141 76 191 20z"/>
<path d="M4465 8221 c-78 -19 -130 -67 -151 -139 -25 -85 3 -184 65 -229 82
-60 216 -58 289 6 30 26 28 37 -8 56 -29 15 -32 15 -57 -5 -19 -15 -40 -20
-83 -20 -50 0 -62 4 -89 29 -59 55 -49 60 127 63 l157 3 3 27 c10 85 -63 184
-151 206 -50 13 -58 13 -102 3z m113 -91 c26 -16 52 -53 52 -76 0 -2 -52 -4
-115 -4 -103 0 -115 2 -115 18 1 39 61 82 115 82 17 0 45 -9 63 -20z"/>
<path d="M4924 8221 c-48 -12 -92 -42 -122 -85 -24 -35 -27 -48 -27 -121 0
-74 3 -85 27 -118 50 -65 84 -82 165 -82 58 0 77 4 102 23 37 27 41 27 41 2 0
-17 7 -20 40 -20 l40 0 0 201 0 200 -37 -3 c-31 -2 -39 -7 -41 -25 -4 -27 -10
-28 -33 -7 -20 18 -86 43 -109 43 -8 -1 -29 -4 -46 -8z m119 -93 c34 -17 56
-47 63 -84 9 -46 -1 -78 -35 -117 -27 -29 -34 -32 -89 -32 -50 0 -65 4 -86 24
-65 61 -55 166 19 209 26 15 100 15 128 0z"/>
<path d="M5714 8220 c-17 -6 -37 -17 -44 -25 -17 -20 -27 -19 -33 6 -5 17 -12
20 -44 17 l-38 -3 -3 -197 -2 -198 44 0 44 0 4 134 c3 125 5 136 26 159 50 53
139 39 161 -24 6 -18 11 -85 11 -150 l0 -119 40 0 40 0 0 145 c0 124 -3 151
-19 183 -32 61 -115 93 -187 72z"/>
<path d="M6354 8220 c-17 -6 -37 -17 -44 -25 -17 -20 -27 -19 -33 6 -5 17 -12
20 -44 17 l-38 -3 -3 -197 -2 -198 45 0 45 0 0 120 c0 146 12 182 64 200 43
14 100 -1 116 -30 6 -10 10 -80 10 -154 l0 -136 45 0 45 0 0 140 c0 160 -11
202 -63 237 -38 26 -100 36 -143 23z"/>
<path d="M6782 8221 c-91 -23 -152 -103 -152 -199 0 -119 81 -203 194 -204 55
-1 85 11 125 46 l24 21 -5 -53 c-6 -62 -26 -88 -80 -102 -51 -14 -106 -3 -136
27 -24 25 -25 25 -58 7 -19 -10 -34 -22 -34 -27 0 -18 67 -68 105 -78 61 -17
168 -6 207 21 73 50 73 49 73 305 l0 230 -37 3 c-35 3 -38 1 -38 -24 0 -26 -1
-26 -22 -10 -50 36 -113 50 -166 37z m131 -93 c50 -26 71 -112 42 -168 -29
-55 -121 -78 -184 -45 -30 15 -61 69 -61 104 0 55 42 110 95 124 25 7 83 -1
108 -15z"/>
<path d="M2643 8214 c-10 -4 -13 -54 -13 -200 l0 -194 44 0 45 0 -2 198 -2
197 -30 2 c-16 1 -36 0 -42 -3z"/>
<path d="M5297 8214 c-4 -4 -7 -94 -7 -201 l0 -193 45 0 45 0 0 121 c0 66 5
129 10 140 12 22 61 49 90 49 17 0 20 6 20 45 0 41 -2 45 -24 45 -13 0 -39
-11 -59 -24 l-36 -25 -3 22 c-2 17 -11 23 -38 25 -20 2 -39 0 -43 -4z"/>
<path d="M6017 8214 c-4 -4 -7 -94 -7 -201 l0 -193 45 0 45 0 -2 198 -3 197
-35 3 c-20 2 -39 0 -43 -4z"/>
<path d="M1212 7574 c-27 -18 -29 -55 -4 -77 24 -22 55 -21 75 1 22 25 21 48
-3 72 -24 24 -38 25 -68 4z"/>
<path d="M2463 7580 c-83 -19 -126 -77 -120 -163 5 -80 33 -107 162 -153 55
-19 108 -43 118 -51 24 -23 21 -60 -8 -88 -20 -21 -34 -25 -86 -25 -60 0 -64
1 -104 43 l-41 43 -32 -19 c-40 -24 -40 -37 0 -83 45 -51 99 -74 178 -74 116
0 189 54 198 148 8 91 -29 131 -170 178 -94 31 -128 56 -128 93 0 76 121 94
182 29 29 -31 29 -31 64 -15 18 9 34 23 34 30 0 25 -76 88 -125 103 -52 15
-73 16 -122 4z"/>
<path d="M3240 7570 c-25 -25 -26 -52 -2 -73 37 -34 92 -11 92 38 0 24 -33 55
-57 55 -7 0 -22 -9 -33 -20z"/>
<path d="M3832 7574 c-41 -29 -19 -94 33 -94 23 0 55 32 55 55 0 38 -55 62
-88 39z"/>
<path d="M1670 7301 l0 -281 45 0 45 0 0 125 c0 147 10 177 65 195 44 14 78 7
105 -22 18 -20 20 -35 20 -160 l0 -138 46 0 45 0 -3 154 c-3 168 -8 183 -71
230 -39 29 -126 28 -166 -2 -17 -12 -32 -22 -35 -22 -3 0 -7 44 -8 98 l-3 97
-42 3 -43 3 0 -280z"/>
<path d="M3410 7301 l0 -281 45 0 45 0 0 88 1 87 82 -88 82 -88 48 3 47 3 -85
94 c-47 52 -85 99 -85 103 0 5 20 30 44 56 92 100 116 127 116 135 0 4 -20 7
-44 7 -47 0 -61 -11 -167 -134 l-34 -39 -5 164 -5 164 -42 3 -43 3 0 -280z"/>
<path d="M4657 7574 c-4 -4 -7 -130 -7 -281 l0 -273 165 0 165 0 0 39 c0 26
-5 41 -16 45 -9 3 -60 6 -115 6 l-99 0 -2 233 -3 232 -40 3 c-23 2 -44 0 -48
-4z"/>
<path d="M1455 7516 c-38 -11 -40 -14 -43 -54 -3 -41 -4 -42 -38 -42 -35 0
-35 0 -32 -42 3 -40 5 -43 34 -46 l32 -3 3 -119 c3 -101 7 -123 25 -147 25
-34 87 -56 132 -48 28 5 32 10 32 39 0 32 -2 34 -41 39 -23 3 -46 11 -50 19
-5 7 -9 59 -9 116 l0 102 43 1 c23 1 45 1 50 0 4 0 7 19 7 44 l0 45 -50 0 -49
0 -3 53 -3 54 -40 -11z"/>
<path d="M4070 7515 c-32 -11 -35 -16 -38 -53 -3 -41 -4 -42 -38 -42 -33 0
-34 -1 -34 -40 0 -37 2 -39 35 -46 l35 -6 0 -102 c0 -157 20 -198 105 -210 66
-8 85 1 85 40 0 31 -2 34 -31 34 -64 0 -69 9 -69 130 l0 109 48 3 47 3 3 43 3
42 -50 0 -51 0 0 49 c0 28 -3 52 -7 54 -5 2 -24 -1 -43 -8z"/>
<path d="M2935 7421 c-136 -33 -200 -208 -119 -323 59 -84 176 -113 271 -67
51 25 89 72 70 87 -40 31 -55 33 -83 7 -93 -86 -244 10 -204 131 28 82 134
113 200 57 l32 -26 34 18 c19 10 34 21 34 25 0 18 -73 73 -115 86 -52 15 -73
16 -120 5z"/>
<path d="M5150 7415 c-52 -16 -107 -65 -126 -112 -19 -45 -17 -131 5 -178 37
-81 111 -120 217 -113 50 3 72 10 106 33 23 17 43 35 45 41 2 6 -12 19 -31 29
-33 18 -34 18 -61 -3 -31 -25 -106 -30 -148 -11 -21 9 -57 56 -57 73 0 3 72 6
160 6 l160 0 0 36 c0 96 -62 182 -144 203 -55 14 -69 13 -126 -4z m146 -99
c59 -59 51 -66 -81 -66 -75 0 -115 4 -115 11 0 42 65 89 124 89 30 0 45 -7 72
-34z"/>
<path d="M5600 7409 c-56 -25 -77 -44 -101 -91 -29 -56 -34 -109 -15 -165 18
-54 73 -115 119 -132 50 -19 118 -13 166 14 52 30 51 30 51 5 0 -17 7 -20 40
-20 l40 0 0 200 0 200 -40 0 c-36 0 -40 -2 -40 -25 0 -30 -11 -32 -34 -6 -17
18 -86 41 -123 41 -10 0 -38 -10 -63 -21z m122 -69 c73 -21 113 -104 84 -173
-48 -116 -226 -93 -243 31 -11 79 30 132 117 151 3 0 22 -4 42 -9z"/>
<path d="M6415 7415 c-22 -8 -41 -19 -43 -25 -6 -18 -22 -11 -22 11 0 18 -5
20 -42 17 l-43 -3 -3 -197 -2 -198 45 0 45 0 0 125 c0 146 10 177 65 195 42
14 100 -1 115 -30 6 -10 10 -80 10 -154 l0 -136 45 0 45 0 0 142 c0 121 -3
148 -20 183 -33 69 -117 99 -195 70z"/>
<path d="M560 7409 c0 -7 27 -97 60 -201 l61 -188 43 0 43 0 39 125 c21 69 42
125 45 125 3 0 23 -56 45 -125 l39 -126 45 3 44 3 57 180 c32 99 58 188 58
198 1 15 -6 18 -41 15 l-41 -3 -38 -128 c-20 -71 -39 -131 -42 -133 -2 -2 -22
55 -44 128 l-39 133 -41 3 -42 3 -36 -118 c-52 -172 -50 -168 -70 -98 -9 33
-27 94 -39 135 l-22 75 -42 3 c-28 2 -42 -1 -42 -9z"/>
<path d="M1200 7221 l0 -201 45 0 45 0 -2 198 -3 197 -42 3 -43 3 0 -200z"/>
<path d="M3230 7221 l0 -201 45 0 45 0 -2 198 -3 197 -42 3 -43 3 0 -200z"/>
<path d="M3820 7221 l0 -201 45 0 45 0 -2 198 -3 197 -42 3 -43 3 0 -200z"/>
<path d="M6000 7220 l0 -200 40 0 40 0 0 98 c0 53 5 114 10 134 13 44 52 78
91 78 28 0 29 2 29 45 0 43 -1 45 -30 45 -19 0 -42 -11 -65 -31 l-35 -31 0 31
c0 30 -2 31 -40 31 l-40 0 0 -200z"/>
<path d="M4250 7260 l0 -40 150 0 150 0 0 40 0 40 -150 0 -150 0 0 -40z"/>
<path d="M6721 7028 c-7 -46 -14 -91 -17 -100 -4 -15 1 -18 33 -18 l39 0 22
85 c12 46 25 91 28 100 5 12 -3 15 -43 15 l-50 0 -12 -82z"/>
<path d="M6310 6510 l0 -290 45 0 45 0 0 290 0 290 -45 0 -45 0 0 -290z"/>
<path d="M3002 6777 c-18 -5 -48 -27 -67 -49 -31 -34 -35 -44 -35 -93 0 -30 5
-65 11 -79 11 -22 8 -28 -21 -53 -40 -33 -60 -78 -60 -136 0 -57 32 -105 90
-135 59 -31 168 -27 226 7 l37 22 23 -28 22 -28 36 17 c42 20 44 28 15 54 -37
33 -40 49 -19 96 27 59 25 71 -15 92 -40 22 -38 23 -51 -23 -5 -19 -14 -36
-20 -38 -6 -2 -50 40 -98 93 -71 80 -86 102 -86 130 0 23 7 38 26 53 40 32 80
27 120 -13 l35 -35 34 21 c19 11 35 25 35 30 0 6 -17 27 -38 48 -54 54 -125
71 -200 47z m50 -379 c36 -40 64 -76 62 -80 -3 -4 -24 -13 -47 -19 -110 -29
-188 60 -121 140 14 17 29 31 32 31 4 0 37 -33 74 -72z"/>
<path d="M600 6500 l0 -280 45 0 44 0 3 129 3 129 108 -129 108 -129 56 0 56
0 -20 23 c-46 51 -213 256 -213 262 0 3 50 65 111 138 l110 132 -45 3 c-25 2
-52 -1 -59 -5 -8 -4 -59 -60 -113 -123 l-99 -115 -3 123 -3 122 -44 0 -45 0 0
-280z"/>
<path d="M3490 6735 l0 -45 80 0 80 0 0 -235 0 -235 45 0 45 0 0 235 0 235 80
0 80 0 0 45 0 45 -205 0 -205 0 0 -45z"/>
<path d="M5920 6500 l0 -280 45 0 44 0 3 113 3 112 113 3 112 3 0 39 0 40
-115 0 -115 0 0 80 0 80 120 0 120 0 0 45 0 45 -165 0 -165 0 0 -280z"/>
<path d="M1143 6614 c-77 -28 -133 -113 -133 -205 0 -45 42 -129 77 -155 84
-62 220 -58 290 8 29 27 29 32 -3 53 -26 16 -28 16 -64 -4 -71 -40 -164 -21
-195 39 l-16 30 161 0 c184 0 180 -2 161 87 -10 41 -23 65 -54 98 -61 63 -137
80 -224 49z m131 -74 c23 -8 66 -62 66 -82 0 -5 -54 -8 -120 -8 -66 0 -120 2
-120 5 0 4 7 19 15 35 27 52 97 74 159 50z"/>
<path d="M1865 6611 c-149 -69 -169 -273 -36 -366 37 -26 51 -30 111 -30 55 0
74 4 99 23 37 27 41 27 41 2 0 -17 7 -20 45 -20 l45 0 -2 198 -3 197 -40 0
c-34 0 -40 -3 -43 -23 -3 -22 -5 -23 -22 -7 -24 22 -87 44 -125 44 -16 0 -48
-8 -70 -18z m158 -83 c30 -16 57 -70 57 -116 0 -61 -48 -112 -111 -119 -85
-10 -139 41 -139 131 0 96 103 151 193 104z"/>
<path d="M2348 6620 c-66 -20 -106 -79 -93 -139 9 -41 34 -60 122 -91 43 -15
82 -35 88 -44 17 -28 -6 -51 -57 -54 -37 -2 -51 2 -74 21 -27 24 -30 24 -61 9
-18 -9 -33 -19 -33 -23 0 -20 56 -70 88 -79 91 -25 178 -4 212 52 41 67 13
134 -67 163 -135 50 -152 64 -117 99 22 22 66 20 97 -4 25 -20 28 -20 57 -5
35 18 38 35 11 59 -41 37 -117 53 -173 36z"/>
<path d="M4016 6615 c-107 -38 -158 -134 -134 -250 31 -149 245 -209 359 -101
l30 29 -30 20 c-17 10 -37 16 -44 13 -6 -4 -23 -13 -37 -21 -30 -17 -103 -19
-133 -4 -26 13 -56 49 -57 67 0 9 39 12 160 12 l160 0 0 43 c0 56 -40 135 -83
165 -64 43 -124 51 -191 27z m150 -99 c59 -59 51 -66 -81 -66 -126 0 -133 4
-94 54 26 33 52 45 103 45 30 1 45 -6 72 -33z"/>
<path d="M4525 6623 c-11 -3 -32 -14 -46 -24 -26 -18 -27 -18 -32 1 -4 16 -14
20 -46 20 l-41 0 0 -200 0 -200 45 0 45 0 0 134 c0 119 2 136 20 159 40 50
134 44 159 -9 6 -14 11 -80 11 -154 l0 -130 46 0 46 0 -3 154 c-4 167 -9 183
-70 228 -25 19 -100 31 -134 21z"/>
<path d="M4896 6620 c-64 -20 -102 -83 -85 -144 12 -43 38 -62 127 -91 72 -23
94 -44 76 -72 -7 -12 -27 -19 -57 -21 -39 -3 -51 1 -72 22 -25 25 -27 25 -55
11 -39 -20 -42 -28 -23 -54 22 -33 90 -61 146 -61 94 0 157 49 157 123 0 54
-45 97 -128 120 -57 16 -92 38 -92 57 0 5 7 16 16 24 22 23 74 20 101 -6 23
-21 23 -21 58 -2 19 10 35 22 35 25 0 15 -63 59 -98 69 -43 12 -66 12 -106 0z"/>
<path d="M5290 6614 c-42 -18 -96 -68 -117 -108 -8 -16 -15 -55 -16 -86 -2
-226 309 -291 404 -85 24 51 24 119 0 171 -44 97 -175 150 -271 108z m127 -79
c12 -3 34 -20 48 -36 29 -36 34 -102 10 -148 -15 -30 -69 -61 -104 -61 -65 0
-131 62 -131 123 0 62 36 108 99 127 26 8 36 7 78 -5z"/>
<path d="M6630 6621 c-74 -24 -119 -63 -145 -123 -34 -82 -11 -175 59 -235
124 -110 324 -38 350 126 12 79 -33 170 -104 210 -43 24 -121 35 -160 22z
m127 -100 c25 -13 53 -70 53 -108 0 -68 -77 -131 -147 -120 -67 11 -103 57
-103 132 0 98 102 147 197 96z"/>
<path d="M1500 6421 l0 -201 45 0 45 0 0 124 c0 145 12 171 81 182 38 6 39 7
39 50 0 40 -2 44 -24 44 -13 0 -39 -11 -59 -24 l-36 -25 -3 22 c-2 18 -11 23
-45 25 l-43 3 0 -200z"/>
<path d="M5657 6613 c-4 -3 -7 -93 -7 -200 l0 -193 44 0 44 0 4 129 c3 147 12
167 80 177 37 6 38 7 38 50 0 38 -3 44 -20 44 -28 0 -77 -26 -89 -47 -9 -15
-10 -12 -11 15 0 30 -2 32 -38 32 -21 0 -42 -3 -45 -7z"/>
<path d="M6925 6593 c3 -16 31 -106 61 -200 l55 -173 45 0 c24 0 44 2 44 4 0
6 69 226 76 246 4 8 25 -43 48 -115 l41 -130 45 -3 45 -2 58 187 c32 104 58
194 57 201 0 9 -13 12 -41 10 l-42 -3 -37 -128 c-20 -70 -39 -129 -42 -132 -2
-3 -22 55 -44 128 l-39 132 -42 3 -41 3 -32 -103 c-49 -162 -52 -170 -56 -165
-2 2 -20 59 -39 126 -18 66 -37 126 -40 131 -3 6 -24 10 -47 10 -39 0 -40 -1
-33 -27z"/>
<path d="M4447 5818 c2 -72 6 -134 9 -137 3 -3 4 54 3 127 0 73 -4 134 -8 137
-4 2 -6 -55 -4 -127z"/>
<path d="M3745 5930 c-7 -12 -8 -231 -1 -238 3 -2 6 53 8 122 2 69 2 126 1
126 -1 0 -5 -5 -8 -10z"/>
<path d="M638 5913 c-31 -20 -43 -42 -30 -55 6 -6 12 0 16 15 4 16 17 29 36
35 16 6 30 13 30 16 0 11 -25 5 -52 -11z"/>
<path d="M710 5920 c8 -5 22 -10 30 -10 13 0 13 1 0 10 -8 5 -22 10 -30 10
-13 0 -13 -1 0 -10z"/>
<path d="M2230 5918 c0 -4 9 -8 20 -8 11 0 20 4 20 9 0 6 -9 9 -20 8 -11 -1
-20 -5 -20 -9z"/>
<path d="M2280 5918 c0 -4 5 -8 11 -8 6 0 10 -10 9 -22 -6 -72 1 -208 11 -208
7 0 10 34 8 108 -4 111 2 135 26 125 8 -3 15 -1 15 4 0 5 -18 9 -40 9 -22 0
-40 -3 -40 -8z"/>
<path d="M3910 5918 c0 -5 14 -8 30 -8 17 0 30 -3 30 -7 2 -87 11 -217 16
-222 3 -3 4 47 2 112 l-3 117 33 0 c17 0 32 4 32 9 0 5 -31 9 -70 8 -38 -1
-70 -5 -70 -9z"/>
<path d="M4840 5920 c0 -5 5 -10 10 -10 6 0 10 5 10 10 0 6 -4 10 -10 10 -5 0
-10 -4 -10 -10z"/>
<path d="M2819 5868 c-2 -95 1 -181 6 -186 3 -3 5 49 5 116 0 67 -2 122 -5
122 -3 0 -5 -24 -6 -52z"/>
<path d="M1775 5891 c3 -5 -2 -17 -11 -25 -12 -13 -13 -17 -2 -21 9 -4 13 -26
12 -76 -1 -74 11 -100 44 -98 13 0 12 3 -4 11 -41 20 -41 152 0 168 21 9 21 9
-1 9 -16 1 -23 7 -23 21 0 11 -5 20 -11 20 -5 0 -8 -4 -4 -9z"/>
<path d="M821 5834 c-21 -26 -25 -46 -21 -94 2 -27 26 -60 43 -60 6 0 1 10
-11 23 -15 16 -22 36 -22 63 0 49 15 71 55 83 l30 9 -27 1 c-17 1 -34 -8 -47
-25z"/>
<path d="M900 5852 c0 -5 7 -15 15 -22 10 -8 15 -31 15 -66 0 -43 -4 -56 -22
-68 -12 -9 -17 -16 -11 -16 35 0 61 77 43 125 -11 28 -40 63 -40 47z"/>
<path d="M1011 5768 c-1 -51 0 -90 3 -88 8 9 13 170 6 175 -4 3 -8 -37 -9 -87z"/>
<path d="M1108 5844 c19 -13 22 -25 24 -92 l2 -77 3 70 c5 90 -1 115 -29 115
l-22 0 22 -16z"/>
<path d="M1227 5845 c-24 -18 -36 -71 -25 -112 9 -33 40 -58 61 -49 7 2 5 5
-4 5 -27 2 -40 27 -41 82 -2 61 18 82 70 77 17 -2 32 0 32 4 0 13 -74 8 -93
-7z"/>
<path d="M1406 5851 c-4 -5 3 -7 14 -4 23 6 26 13 6 13 -8 0 -17 -4 -20 -9z"/>
<path d="M1468 5837 c28 -30 28 -51 0 -65 l-23 -12 25 3 c19 1 26 8 28 30 3
28 -21 67 -41 67 -6 0 -1 -10 11 -23z"/>
<path d="M1660 5854 c0 -6 5 -15 11 -21 7 -7 12 -35 12 -64 0 -41 -5 -58 -23
-76 l-23 -24 25 12 c47 21 58 128 17 165 -10 9 -19 13 -19 8z"/>
<path d="M1910 5850 c-8 -5 -10 -10 -5 -10 6 0 17 5 25 10 8 5 11 10 5 10 -5
0 -17 -5 -25 -10z"/>
<path d="M1950 5856 c0 -2 7 -6 15 -10 8 -3 15 -1 15 4 0 6 -7 10 -15 10 -8 0
-15 -2 -15 -4z"/>
<path d="M2432 5841 c-22 -19 -28 -31 -14 -31 7 1 46 50 39 50 -2 0 -14 -8
-25 -19z"/>
<path d="M2488 5849 c38 -15 48 -32 46 -81 -1 -27 2 -48 7 -48 5 0 9 22 9 48
0 38 -5 53 -23 70 -13 12 -32 22 -43 21 -16 0 -16 -2 4 -10z"/>
<path d="M2625 5836 c-39 -59 -25 -146 26 -159 18 -5 17 -2 -5 18 -21 19 -26
33 -26 71 0 30 6 54 17 66 9 10 14 21 10 24 -3 3 -13 -6 -22 -20z"/>
<path d="M2685 5851 c65 -14 77 -127 17 -164 -15 -9 -21 -17 -14 -17 7 0 24
11 37 25 51 50 20 167 -43 164 -27 -1 -27 -1 3 -8z"/>
<path d="M2898 5834 c-15 -33 -2 -56 41 -69 50 -15 55 -66 7 -85 -16 -7 -17
-9 -4 -9 41 -2 64 71 28 89 -8 4 -27 13 -42 21 -48 22 -32 63 27 72 27 4 26 4
-8 6 -31 1 -39 -3 -49 -25z"/>
<path d="M3278 5853 c7 -3 16 -2 19 1 4 3 -2 6 -13 5 -11 0 -14 -3 -6 -6z"/>
<path d="M3323 5842 c10 -10 17 -26 17 -35 0 -9 5 -17 10 -17 6 0 10 6 10 13
0 18 -29 57 -42 57 -6 0 -4 -8 5 -18z"/>
<path d="M3422 5767 l1 -92 7 73 c5 40 10 79 13 86 3 8 0 17 -8 19 -10 4 -13
-14 -13 -86z"/>
<path d="M3465 5850 c-3 -6 1 -7 9 -4 18 7 21 14 7 14 -6 0 -13 -4 -16 -10z"/>
<path d="M3532 5838 c10 -16 14 -45 12 -93 l-3 -70 11 63 c10 64 -1 122 -24
122 -6 0 -4 -10 4 -22z"/>
<path d="M3656 5852 c-3 -5 8 -6 25 -4 16 2 29 6 29 8 0 8 -49 4 -54 -4z"/>
<path d="M4104 5837 c-23 -20 -25 -26 -15 -44 8 -15 8 -22 0 -25 -15 -5 3 -70
21 -76 12 -4 13 -2 4 9 -7 8 -12 40 -12 72 0 52 2 59 26 72 15 8 22 14 15 15
-7 0 -24 -10 -39 -23z"/>
<path d="M4170 5854 c0 -7 7 -14 15 -18 8 -3 15 -15 15 -26 0 -11 5 -20 10
-20 6 0 10 4 10 9 0 14 -49 68 -50 55z"/>
<path d="M4295 5840 c-21 -23 -30 -60 -15 -60 6 0 10 8 10 18 0 29 16 45 56
52 l39 8 -36 1 c-25 1 -42 -5 -54 -19z"/>
<path d="M4554 5840 c3 -14 6 -55 6 -92 0 -44 4 -68 11 -68 15 0 7 139 -10
165 -11 19 -12 18 -7 -5z"/>
<path d="M4641 5770 c-1 -59 2 -90 10 -90 7 0 9 25 7 75 -2 41 1 76 6 78 11 4
-1 27 -13 27 -4 0 -9 -40 -10 -90z"/>
<path d="M4740 5851 c0 -6 5 -13 10 -16 6 -3 10 -40 10 -81 0 -45 4 -74 11
-74 13 0 10 139 -5 163 -12 18 -26 23 -26 8z"/>
<path d="M4844 5770 c0 -52 1 -74 3 -47 2 26 2 68 0 95 -2 26 -3 4 -3 -48z"/>
<path d="M4940 5835 c-19 -21 -22 -32 -18 -80 3 -34 11 -61 19 -66 24 -15 30
-10 11 11 -12 13 -18 34 -17 62 1 55 14 76 51 87 28 9 29 9 3 10 -15 1 -35 -9
-49 -24z"/>
<path d="M5038 5842 c9 -10 19 -14 21 -9 2 5 -3 13 -10 18 -24 15 -30 10 -11
-9z"/>
<path d="M5133 5795 c0 -38 2 -53 4 -32 2 20 2 52 0 70 -2 17 -4 1 -4 -38z"/>
<path d="M5248 5788 c-3 -40 -7 -79 -9 -87 -2 -7 1 -15 7 -18 7 -2 11 27 13
87 1 49 0 90 -3 90 -2 0 -6 -33 -8 -72z"/>
<path d="M5353 5848 c-26 -13 -34 -30 -22 -49 7 -11 9 -9 9 8 0 14 10 28 28
37 31 17 19 20 -15 4z"/>
<path d="M5419 5839 c15 -15 21 -29 18 -45 -3 -15 0 -24 9 -24 9 0 10 8 4 31
-10 35 -28 59 -43 59 -6 0 -1 -10 12 -21z"/>
<path d="M5548 5853 c6 -2 18 -2 25 0 6 3 1 5 -13 5 -14 0 -19 -2 -12 -5z"/>
<path d="M1570 5765 c0 -74 2 -85 18 -85 13 0 14 2 4 9 -10 6 -13 29 -10 85 1
42 0 76 -4 76 -5 0 -8 -38 -8 -85z"/>
<path d="M5515 5840 c-3 -5 -1 -10 4 -10 6 0 11 5 11 10 0 6 -2 10 -4 10 -3 0
-8 -4 -11 -10z"/>
<path d="M593 5786 c5 -55 27 -96 50 -96 6 0 2 9 -8 20 -10 11 -20 42 -23 70
-2 28 -9 53 -15 57 -7 4 -8 -13 -4 -51z"/>
<path d="M1376 5824 c-3 -9 -6 -37 -6 -63 0 -54 16 -74 65 -85 22 -5 26 -4 15
4 -8 5 -23 10 -32 10 -18 0 -38 28 -38 54 0 9 9 16 20 16 11 0 20 5 20 10 0 6
-10 10 -21 10 -19 0 -21 4 -15 30 6 32 2 40 -8 14z"/>
<path d="M3620 5801 c-7 -25 -7 -48 -1 -64 5 -14 8 -27 5 -30 -2 -2 3 -10 13
-18 15 -13 16 -12 7 6 -5 11 -9 48 -9 83 0 34 -1 62 -2 62 -1 0 -7 -18 -13
-39z"/>
<path d="M1886 5822 c-10 -17 28 -60 57 -64 28 -4 41 -43 21 -63 -9 -8 -11
-15 -6 -15 29 0 39 67 12 80 -8 4 -27 13 -42 20 -15 7 -28 22 -30 34 -2 16 -5
18 -12 8z"/>
<path d="M5510 5802 c0 -14 35 -42 51 -42 27 0 38 -20 28 -52 -7 -25 -6 -28 6
-18 30 25 12 80 -25 80 -9 0 -26 9 -38 20 -12 12 -22 17 -22 12z"/>
<path d="M5050 5752 c0 -26 -5 -53 -12 -60 -9 -9 -9 -12 -1 -12 7 0 14 -15 16
-32 2 -18 5 9 5 60 1 50 0 92 -3 92 -3 0 -5 -22 -5 -48z"/>
<path d="M2400 5769 c0 -13 5 -31 10 -39 7 -11 8 -5 4 20 -8 43 -14 51 -14 19z"/>
<path d="M3328 5771 c9 -5 13 -22 10 -46 -1 -21 2 -40 7 -42 6 -2 11 19 12 47
1 45 0 50 -20 50 -16 0 -18 -3 -9 -9z"/>
<path d="M4120 5770 c0 -5 18 -10 40 -10 22 0 40 5 40 10 0 6 -18 10 -40 10
-22 0 -40 -4 -40 -10z"/>
<path d="M5323 5743 c6 -36 29 -64 51 -62 6 0 1 5 -11 11 -21 10 -29 35 -24
76 1 6 -3 12 -10 12 -8 0 -10 -12 -6 -37z"/>
<path d="M5350 5768 c0 -4 16 -8 35 -8 19 0 35 4 35 8 0 4 -16 8 -35 8 -19 0
-35 -4 -35 -8z"/>
<path d="M3251 5756 c-16 -19 -10 -68 7 -74 11 -3 11 -1 0 17 -16 26 -2 52 33
62 l24 7 -26 1 c-15 1 -32 -5 -38 -13z"/>
<path d="M4264 5762 c4 -7 10 -25 12 -39 5 -26 19 -43 37 -43 4 0 -1 9 -12 21
-11 12 -17 27 -15 33 3 7 -3 19 -12 27 -12 9 -15 10 -10 1z"/>
<path d="M5130 5707 c0 -9 9 -21 20 -27 11 -6 20 -8 20 -5 0 3 -9 15 -20 27
-17 18 -20 19 -20 5z"/>
<path d="M2420 5700 c0 -9 59 -35 64 -29 2 2 -12 11 -30 20 -19 9 -34 13 -34
9z"/>
<path d="M2512 5695 c-7 -8 -9 -15 -4 -15 5 0 15 7 22 15 16 19 -1 19 -18 0z"/>
<path d="M730 5691 c-8 -6 -28 -8 -45 -5 -27 4 -28 4 -7 -6 25 -11 72 -4 72
11 0 11 -1 11 -20 0z"/>
<path d="M2050 5670 c0 -16 2 -30 4 -30 2 0 6 14 8 30 3 17 1 30 -4 30 -4 0
-8 -13 -8 -30z"/>
<path d="M3060 5689 c0 -5 5 -7 10 -4 6 3 10 8 10 11 0 2 -4 4 -10 4 -5 0 -10
-5 -10 -11z"/>
<path d="M1478 5683 c7 -3 16 -2 19 1 4 3 -2 6 -13 5 -11 0 -14 -3 -6 -6z"/>
<path d="M2898 5683 c7 -3 16 -2 19 1 4 3 -2 6 -13 5 -11 0 -14 -3 -6 -6z"/>
<path d="M3668 5678 c5 -5 16 -8 23 -6 8 3 3 7 -10 11 -17 4 -21 3 -13 -5z"/>
<path d="M4358 5683 c6 -2 18 -2 25 0 6 3 1 5 -13 5 -14 0 -19 -2 -12 -5z"/>
<path d="M5428 5683 c7 -3 16 -2 19 1 4 3 -2 6 -13 5 -11 0 -14 -3 -6 -6z"/>
<path d="M1568 5630 c-3 -16 -1 -30 4 -30 4 0 8 14 8 30 0 17 -2 30 -4 30 -2
0 -6 -13 -8 -30z"/>
<path d="M3050 5649 c0 -5 5 -7 10 -4 6 3 10 8 10 11 0 2 -4 4 -10 4 -5 0 -10
-5 -10 -11z"/>
<path d="M1718 5478 c-3 -29 -1 -57 3 -62 4 -5 5 -15 2 -22 -3 -8 0 -14 6 -14
11 0 11 133 -1 145 -3 3 -8 -18 -10 -47z"/>
<path d="M2604 5395 c0 -77 2 -107 3 -67 2 40 2 103 0 140 -2 37 -3 4 -3 -73z"/>
<path d="M1522 5388 c2 -134 5 -118 10 45 2 48 0 87 -4 87 -5 0 -7 -60 -6
-132z"/>
<path d="M1030 5498 c0 -4 6 -8 14 -8 8 0 17 4 20 8 2 4 -4 8 -15 8 -10 0 -19
-4 -19 -8z"/>
<path d="M1085 5500 c3 -5 15 -10 25 -10 21 0 25 -4 34 -43 5 -23 2 -30 -26
-47 -18 -11 -28 -20 -22 -20 6 0 23 10 38 21 23 18 26 26 20 53 -8 38 -11 42
-47 50 -19 4 -26 3 -22 -4z"/>
<path d="M1910 5406 c0 -59 4 -108 10 -111 6 -4 10 33 10 104 0 67 -4 111 -10
111 -6 0 -10 -41 -10 -104z"/>
<path d="M2680 5499 c0 -5 5 -7 10 -4 6 3 10 8 10 11 0 2 -4 4 -10 4 -5 0 -10
-5 -10 -11z"/>
<path d="M2515 5380 c0 -66 3 -120 8 -120 4 0 7 54 7 120 0 66 -3 120 -7 120
-5 0 -8 -54 -8 -120z"/>
<path d="M3575 5490 c-3 -6 1 -7 9 -4 18 7 21 14 7 14 -6 0 -13 -4 -16 -10z"/>
<path d="M610 5467 c0 -9 -8 -21 -17 -26 -17 -10 -17 -10 0 -11 15 0 17 -11
17 -80 0 -68 3 -81 19 -90 25 -13 41 -13 41 0 0 6 -9 10 -20 10 -21 0 -21 0
-24 147 -1 28 -5 55 -9 59 -4 4 -7 0 -7 -9z"/>
<path d="M1032 5450 c0 -19 2 -27 5 -17 2 9 2 25 0 35 -3 9 -5 1 -5 -18z"/>
<path d="M3348 5458 c-3 -18 0 -29 9 -32 26 -10 37 -6 21 7 -9 6 -18 21 -20
32 -3 16 -5 15 -10 -7z"/>
<path d="M4081 5438 c-1 -27 3 -48 8 -48 5 0 8 8 7 17 0 10 9 20 24 24 22 6
22 7 4 8 -12 1 -26 11 -32 24 -9 19 -11 16 -11 -25z"/>
<path d="M2210 5458 c0 -9 -6 -18 -12 -21 -7 -2 -5 -3 4 -2 9 2 19 -2 22 -9 2
-6 5 -5 5 4 0 8 -4 22 -9 30 -8 13 -10 13 -10 -2z"/>
<path d="M6310 5463 c-27 -5 -132 -41 -195 -68 -29 -13 -52 -15 -90 -10 -104
15 -139 12 -178 -18 -19 -15 -43 -27 -51 -27 -37 0 -132 -117 -112 -137 10
-10 -23 -60 -68 -101 -53 -49 -61 -65 -13 -27 17 14 35 25 38 23 15 -7 49 37
55 71 7 44 24 92 39 107 20 21 66 47 72 41 3 -4 24 9 45 29 34 30 44 34 71 29
18 -4 42 -18 55 -31 22 -23 60 -34 47 -14 -3 6 -2 10 4 10 5 0 18 3 28 6 14 4
15 4 4 -4 -7 -5 -10 -15 -7 -21 14 -22 -37 -73 -138 -139 -55 -37 -121 -78
-146 -91 -62 -32 -106 -76 -136 -136 -31 -60 -62 -113 -88 -150 -14 -19 -20
-46 -21 -97 -2 -62 -6 -73 -30 -97 l-27 -26 7 24 c5 16 4 21 -4 17 -6 -4 -11
-16 -11 -27 0 -10 -7 -19 -15 -19 -8 0 -15 -7 -15 -16 0 -14 -3 -14 -15 -4 -8
7 -15 9 -15 4 -1 -5 -12 5 -26 21 -25 30 -25 30 -13 3 6 -15 25 -31 40 -37 40
-14 36 -38 -11 -78 -21 -19 -49 -51 -61 -72 -12 -21 -35 -46 -53 -55 -17 -9
-23 -14 -13 -12 9 3 17 1 17 -5 0 -6 7 -9 15 -5 21 8 19 -8 -5 -29 -11 -10
-17 -22 -14 -26 3 -5 -3 -6 -12 -2 -11 4 -15 2 -11 -4 4 -6 0 -13 -7 -16 -11
-5 -13 1 -9 28 4 27 1 35 -17 45 -18 10 -24 9 -31 -1 -6 -10 -28 -13 -74 -12
-36 1 -63 -2 -60 -7 3 -5 -3 -11 -14 -15 -10 -3 -21 -14 -24 -24 -2 -10 -15
-21 -28 -24 l-24 -6 23 19 c12 10 18 21 13 24 -5 4 -20 -8 -33 -25 -47 -65
-115 -125 -177 -158 -35 -19 -80 -48 -100 -66 -56 -50 -132 -84 -252 -111 -85
-19 -118 -22 -145 -15 -39 11 -76 42 -56 49 6 2 12 9 12 16 0 18 74 50 160 70
315 74 363 91 444 164 100 90 176 143 251 179 17 8 42 20 58 28 l27 14 1 -42
c1 -43 3 -39 13 24 5 25 24 55 71 104 36 39 65 77 65 86 0 57 122 345 141 333
4 -2 11 1 15 7 5 8 3 9 -6 4 -8 -5 -11 -3 -8 6 3 8 10 13 16 12 6 -2 19 13 28
32 9 19 22 35 30 35 8 0 11 6 7 17 -5 13 -16 5 -55 -38 -69 -77 -152 -244
-179 -358 -14 -63 -141 -197 -214 -227 l-52 -21 14 40 c13 36 14 67 10 219 -1
34 7 46 80 120 81 84 104 121 85 140 -10 10 -30 7 -108 -17 -21 -6 -21 -4 -21
87 0 122 -8 160 -35 156 -17 -2 -26 -21 -48 -93 -14 -49 -32 -101 -40 -115
l-13 -24 -51 57 c-58 64 -172 157 -193 157 -20 0 -26 -25 -12 -52 7 -13 29
-45 49 -73 29 -39 60 -101 60 -120 0 -2 -35 6 -158 38 -46 11 -67 2 -57 -25 4
-9 43 -39 87 -67 l80 -51 -5 -43 c-3 -23 -12 -68 -20 -99 -8 -31 -20 -121 -27
-200 -7 -82 -18 -157 -27 -175 -11 -23 -13 -47 -9 -76 l7 -44 -73 -21 c-40
-12 -118 -32 -173 -46 -55 -14 -140 -40 -190 -57 -49 -17 -139 -49 -200 -69
-87 -29 -105 -39 -87 -44 12 -4 20 -11 18 -15 -3 -4 29 -7 72 -6 92 3 91 3 72
15 -10 6 -11 12 -5 18 15 14 75 23 75 12 0 -6 -6 -10 -14 -10 -8 0 -17 -4 -20
-9 -4 -5 4 -7 16 -5 17 3 15 1 -7 -10 -16 -9 -26 -15 -21 -16 11 0 -25 -29
-37 -30 -4 0 -6 6 -5 13 4 17 -71 9 -90 -10 -12 -12 -16 -12 -23 -1 -6 9 -9 4
-9 -14 0 -20 -16 -44 -57 -86 -47 -48 -84 -72 -191 -126 -74 -36 -176 -91
-229 -122 -118 -70 -188 -95 -279 -100 -61 -4 -73 -1 -89 16 -20 22 -13 39 9
21 11 -9 15 -8 20 5 9 23 7 31 -4 14 -5 -8 -10 -10 -10 -4 0 7 11 19 25 28 14
9 23 22 19 28 -5 7 -2 8 6 3 8 -5 11 -4 6 3 -3 6 -2 13 3 16 5 4 12 -3 16 -14
4 -11 11 -17 17 -14 7 4 6 9 -2 14 -7 5 -3 13 15 24 14 9 23 21 20 25 -7 12
183 124 325 193 152 73 309 134 340 131 24 -2 24 -2 3 7 -17 7 -46 0 -125 -31
-241 -94 -351 -151 -583 -305 -184 -121 -319 -249 -505 -477 -4 -4 -42 15 -85
44 -130 86 -181 97 -262 58 -77 -37 -115 -93 -152 -221 -31 -107 -110 -280
-167 -363 -13 -20 -24 -40 -24 -45 0 -30 -29 -16 -81 39 -55 60 -59 62 -100
59 -23 -2 -44 -8 -46 -14 -2 -6 12 -30 32 -54 20 -23 33 -45 31 -47 -3 -3 -19
0 -37 6 -18 6 -62 11 -99 11 -53 0 -70 -4 -84 -19 -17 -18 -17 -20 1 -29 10
-5 36 -13 58 -17 39 -7 95 -33 95 -45 0 -13 -86 -60 -119 -66 -59 -9 -84 -19
-95 -37 -21 -33 8 -42 132 -42 135 0 143 -7 98 -75 -14 -22 -26 -43 -26 -48 0
-24 -92 -81 -215 -134 -60 -25 -158 -82 -311 -178 -86 -54 -255 -185 -374
-291 -40 -35 -118 -104 -174 -152 -115 -101 -155 -143 -230 -242 -164 -216
-243 -439 -240 -680 3 -191 48 -309 173 -456 l33 -39 95 0 c60 0 92 4 88 10
-3 6 -16 10 -29 10 -13 0 -31 9 -41 20 -10 11 -24 20 -30 20 -7 0 -23 8 -36
19 l-23 18 32 -5 c39 -5 41 10 5 37 -28 19 -28 20 -8 35 30 23 49 19 74 -15
13 -18 18 -28 11 -24 -10 6 -12 4 -7 -9 4 -10 7 -20 7 -22 0 -2 7 -4 16 -4 10
0 14 5 10 16 -3 8 -2 12 4 9 6 -3 10 0 10 9 0 11 6 9 24 -7 15 -13 20 -24 14
-28 -6 -4 -7 -13 -2 -20 6 -11 4 -11 -10 0 -12 10 -20 11 -28 3 -8 -8 -4 -14
16 -23 18 -9 30 -9 34 -3 16 24 46 22 118 -7 42 -17 93 -33 113 -35 l36 -4
-30 14 c-16 9 -36 15 -44 16 -8 0 -57 21 -109 47 -100 49 -122 71 -168 163
-39 78 -41 128 -10 232 26 84 45 115 61 100 5 -4 5 -1 1 5 -4 7 -1 25 7 40 8
16 22 46 32 68 26 55 64 107 76 100 5 -4 6 2 2 11 -4 12 -3 15 6 10 8 -5 11
-3 10 5 -4 18 19 59 33 59 7 0 6 -5 -2 -15 -16 -19 -3 -20 16 -1 11 11 11 16
1 19 -9 4 -9 8 1 15 8 5 13 11 11 13 -7 11 57 90 82 101 16 7 29 18 29 25 0 7
12 20 28 29 15 10 38 24 52 33 14 8 29 16 33 16 5 0 14 7 20 15 18 24 103 90
115 90 6 0 12 3 14 8 6 15 69 41 86 36 12 -4 13 -3 4 3 -10 8 -10 12 3 23 8 7
15 9 15 4 0 -5 4 -4 8 1 4 6 36 23 72 40 36 16 73 36 83 44 9 8 25 15 35 16
10 0 34 13 53 27 18 14 41 25 50 25 9 0 36 9 60 21 24 11 60 25 79 30 34 10
64 20 145 50 51 18 75 24 102 26 11 0 19 4 17 8 -6 10 27 26 99 50 34 11 69
26 77 33 8 7 22 12 30 13 8 0 37 7 64 16 27 8 53 13 58 10 5 -3 7 0 6 6 -3 12
119 63 227 97 28 9 91 28 140 44 123 38 179 47 330 54 72 3 141 8 155 11 l25
6 -22 -24 c-11 -13 -35 -52 -53 -88 -18 -36 -36 -73 -42 -83 -5 -10 -20 -57
-33 -105 -47 -173 -54 -192 -79 -222 -55 -66 -48 -136 28 -295 31 -64 61 -139
67 -166 14 -63 34 -73 66 -33 21 25 24 38 21 85 l-4 57 67 -57 c72 -60 184
-125 237 -136 30 -6 32 -5 32 22 -1 22 -13 38 -56 72 -53 42 -114 118 -114
140 0 18 123 13 191 -9 98 -29 143 -35 157 -17 7 8 10 21 7 29 -6 16 -17 22
-94 54 -25 10 -62 33 -83 50 l-37 32 37 7 c53 10 142 56 142 73 0 12 -19 13
-122 9 -99 -5 -119 -4 -102 6 11 7 36 29 54 50 25 29 30 40 21 51 -9 11 -20
12 -47 5 -19 -6 -39 -7 -46 -3 -6 4 -8 3 -5 -3 4 -6 -3 -13 -16 -17 -37 -10
-38 -7 -15 24 15 21 24 26 29 18 5 -8 8 -5 7 8 -2 25 40 96 53 89 5 -4 6 2 2
11 -4 12 -3 15 5 10 7 -4 10 -2 7 6 -6 18 51 144 58 127 4 -9 6 -7 7 6 2 11 4
30 5 41 3 31 15 46 31 40 8 -3 14 -1 14 4 0 6 -7 10 -15 10 -9 0 -12 6 -8 16
5 13 8 13 15 2 7 -9 8 -6 4 11 -3 13 2 40 10 59 17 41 19 208 4 264 -6 21 -21
50 -34 65 -23 28 -26 33 -26 53 0 6 -5 10 -11 10 -8 0 -8 -5 1 -15 7 -8 8 -15
2 -15 -5 0 -15 7 -22 15 -9 11 -9 15 -1 15 7 0 10 4 7 9 -4 5 4 7 16 4 19 -4
20 -3 8 6 -12 9 -11 11 10 12 14 0 39 9 55 20 17 10 37 21 45 25 8 3 31 14 50
24 19 11 69 35 110 55 41 19 92 45 113 56 21 11 41 17 46 14 5 -2 11 1 14 8 3
7 25 19 48 26 24 7 69 26 99 42 30 15 69 31 85 35 17 4 51 18 77 31 27 13 51
23 54 22 4 0 10 3 13 8 3 5 29 16 56 25 81 27 178 69 204 89 13 10 27 16 32
13 5 -3 9 -1 9 5 0 5 26 22 58 37 31 14 76 44 99 65 24 22 50 39 58 39 8 0 35
18 60 41 24 22 48 38 54 35 5 -3 7 2 5 11 -5 20 1 30 31 55 20 16 21 16 22 0
0 -9 8 -51 17 -92 13 -60 24 -82 52 -111 19 -20 49 -41 67 -47 18 -6 70 -24
117 -40 73 -26 142 -39 400 -80 36 -6 49 -14 68 -42 22 -32 23 -41 18 -117 -5
-52 -3 -84 3 -88 23 -13 52 19 93 102 24 47 51 91 61 97 14 9 39 0 131 -47
154 -77 195 -84 196 -29 0 18 -92 114 -143 148 -23 16 -44 32 -47 36 -3 4 -23
15 -45 24 -38 15 -39 17 -20 31 34 26 118 64 185 85 73 22 96 39 87 62 -5 12
-21 16 -70 16 -57 0 -153 -13 -199 -26 -28 -8 -21 8 22 54 40 42 49 73 30 102
-8 12 -16 9 -47 -22 -21 -20 -62 -52 -91 -71 l-53 -34 -74 14 c-90 16 -303 89
-327 110 -9 8 -22 12 -27 8 -6 -3 -11 -2 -11 4 0 5 8 15 18 20 9 6 14 11 10
11 -7 0 12 53 56 155 14 33 26 74 26 90 0 17 7 38 15 48 7 11 11 25 8 33 -4
10 0 12 13 8 11 -4 16 -3 11 1 -10 12 32 55 48 49 7 -3 15 2 19 12 5 14 4 15
-9 4 -8 -7 -15 -8 -15 -2 0 13 25 33 33 26 3 -3 10 4 17 15 7 15 8 21 0 21 -6
0 -3 11 7 24 10 13 21 22 25 20 4 -3 7 4 7 13 -1 28 28 99 33 82 3 -7 3 -3 2
11 -2 14 2 48 10 75 8 28 15 41 16 30 1 -16 5 -12 19 15 12 22 16 41 11 50
-12 22 7 50 28 44 12 -4 13 -3 4 3 -7 5 -10 17 -6 27 6 15 7 15 20 -1 15 -20
19 -6 5 16 -11 17 5 55 19 46 6 -3 7 1 4 9 -4 9 -1 16 6 16 7 0 10 7 7 15 -9
21 53 86 75 79 10 -3 18 0 18 6 0 6 -6 8 -12 4 -7 -3 -1 5 14 18 15 14 24 28
21 32 -4 4 0 4 9 1 9 -4 18 0 22 10 4 10 12 15 22 11 8 -3 13 -2 10 3 -3 4 8
21 24 36 17 16 30 24 30 18 0 -6 -5 -13 -12 -15 -9 -3 -9 -6 0 -11 7 -5 15 7
22 34 8 28 16 39 25 35 10 -3 12 0 8 11 -4 11 -2 14 5 9 8 -5 10 -1 5 11 -3
10 -2 15 2 11 5 -5 14 1 22 12 8 11 19 20 25 20 12 0 73 50 61 50 -4 1 1 9 13
18 12 10 27 28 34 41 10 19 14 21 22 10 7 -10 7 -7 3 9 -4 14 0 32 9 47 28 43
58 136 53 163 -3 15 -1 36 4 47 9 18 9 18 5 -3 -2 -13 0 -20 6 -16 5 4 8 19 6
35 -3 16 -1 29 4 29 4 0 8 9 8 20 0 12 7 20 17 20 12 0 14 3 6 11 -11 11 -5
59 8 59 5 0 5 8 2 17 -5 12 -2 15 8 11 11 -4 14 7 16 51 1 31 7 69 12 84 33
87 -9 210 -90 260 -38 23 -149 59 -169 55 -3 0 -16 -3 -30 -5z m-150 -128 c0
-2 -10 -9 -22 -15 -22 -11 -22 -10 -4 4 21 17 26 19 26 11z m261 -97 c5 -46 4
-66 -3 -62 -5 3 -11 -2 -14 -10 -3 -9 -11 -13 -17 -9 -6 3 -7 1 -3 -6 4 -6 12
-9 17 -6 5 4 9 -1 9 -10 0 -9 -3 -15 -7 -13 -5 2 -20 10 -35 17 -32 16 -98 7
-98 -14 0 -8 -9 -19 -20 -25 -11 -6 -20 -7 -20 -1 0 5 7 11 15 15 8 3 15 11
14 18 0 10 -2 10 -6 0 -2 -6 -8 -10 -11 -8 -7 4 -64 -52 -69 -67 -2 -4 -3 -16
-3 -28 0 -13 -4 -18 -12 -13 -8 5 -9 2 -5 -9 4 -11 1 -17 -8 -17 -8 0 -15 -4
-15 -10 0 -5 5 -10 10 -10 6 0 10 -9 10 -20 0 -11 -7 -20 -15 -20 -8 0 -15 -4
-15 -10 0 -5 7 -7 15 -4 8 4 15 1 15 -5 0 -6 -6 -11 -12 -11 -10 0 -9 -3 1 -9
7 -5 10 -14 7 -20 -4 -6 -1 -11 6 -12 10 0 10 -2 1 -6 -19 -7 -16 -23 5 -24
11 0 12 -2 4 -6 -7 -3 -18 0 -25 5 -8 7 -18 7 -27 2 -12 -7 -12 -11 1 -26 13
-15 12 -16 -10 -9 -16 5 -21 4 -17 -4 4 -6 1 -11 -8 -11 -10 0 -13 -6 -10 -15
4 -9 0 -15 -10 -15 -9 0 -16 -6 -16 -14 0 -8 -6 -16 -12 -19 -7 -2 -10 -8 -6
-12 10 -10 40 14 32 26 -7 11 64 10 91 -1 18 -8 18 -9 -5 -9 -20 -1 -22 -3
-10 -11 11 -7 11 -10 2 -10 -7 0 -11 -4 -8 -8 2 -4 1 -14 -5 -22 -6 -10 -9
-11 -9 -2 0 6 -7 12 -15 12 -19 0 -19 -5 1 -34 15 -24 14 -24 -15 -23 -17 1
-29 -2 -28 -8 1 -5 9 -9 19 -8 9 1 18 -3 21 -10 3 -9 -6 -13 -31 -12 -26 0
-38 -5 -40 -17 -2 -9 5 -18 15 -21 12 -3 8 -5 -9 -6 -23 -1 -28 -6 -28 -26 0
-16 -6 -25 -15 -25 -8 0 -15 -9 -15 -20 0 -11 -4 -20 -10 -20 -5 0 -9 6 -7 12
1 7 -8 14 -20 16 -16 2 -23 -2 -23 -12 0 -10 -9 -16 -22 -16 -32 -1 -62 -44
-49 -69 9 -15 7 -18 -12 -16 -12 1 -29 3 -37 4 -10 1 -9 5 7 16 15 10 21 26
21 55 0 22 3 43 6 48 2 4 -12 6 -32 3 -33 -5 -34 -6 -9 -9 40 -5 33 -22 -10
-24 l-38 -1 33 -4 c42 -5 40 -35 -3 -44 l-30 -7 30 -2 c27 -2 25 -3 -14 -12
-44 -10 -75 -30 -64 -42 4 -3 1 -6 -5 -6 -15 0 -15 3 3 47 8 19 15 50 15 68 0
39 54 113 116 160 21 16 44 33 49 37 6 4 30 23 55 41 25 18 65 62 89 97 37 52
45 73 49 119 2 31 8 61 13 67 5 6 15 30 24 53 8 23 28 53 44 67 17 14 33 34
36 44 4 11 13 20 21 20 8 0 34 9 57 21 23 12 57 22 76 24 19 2 43 13 55 24 23
24 35 27 37 9z m166 -40 c-3 -8 -6 -5 -6 6 -1 11 2 17 5 13 3 -3 4 -12 1 -19z
m-907 -62 c0 -2 -8 -10 -17 -17 -16 -13 -17 -12 -4 4 13 16 21 21 21 13z m46
-121 c-15 -16 -26 -24 -26 -20 0 11 42 56 47 51 2 -2 -7 -16 -21 -31z m93 -6
c-6 -12 -13 -18 -16 -15 -3 3 -14 -5 -25 -17 -10 -12 -7 -3 8 20 26 42 55 51
33 12z m439 2 c38 -32 22 -71 -29 -71 -36 0 -52 22 -44 60 8 36 37 40 73 11z
m115 -36 l6 -40 -14 35 c-16 41 -19 69 -6 55 5 -6 11 -28 14 -50z m-353 -48
c0 -2 -9 -12 -20 -22 -24 -21 -27 -14 -4 9 15 15 24 20 24 13z m317 -39 c-2
-7 -12 -12 -21 -12 -9 1 -16 -2 -16 -7 0 -5 -5 -9 -12 -9 -6 0 -3 9 7 20 20
22 49 27 42 8z m-175 -112 c3 -15 0 -27 -8 -30 -8 -3 -14 -1 -14 5 0 5 -10 8
-22 7 -13 -2 -24 2 -25 7 -2 6 10 10 25 10 16 0 26 5 25 13 -2 6 1 12 6 12 5
0 11 -11 13 -24z m-1312 -88 c0 -5 -4 -7 -9 -4 -5 3 -11 -11 -15 -32 -3 -20
-9 -47 -12 -59 -4 -14 -2 -23 5 -23 6 0 11 15 12 33 0 17 5 41 10 52 8 16 9
15 5 -10 -2 -16 -10 -67 -16 -113 -8 -53 -16 -81 -24 -79 -6 2 -10 15 -10 28
7 128 25 228 41 222 7 -3 13 -9 13 -15z m-53 -50 c-3 -8 -6 -5 -6 6 -1 11 2
17 5 13 3 -3 4 -12 1 -19z m-10 -65 c-3 -10 -5 -4 -5 12 0 17 2 24 5 18 2 -7
2 -21 0 -30z m1573 -23 c0 -5 -5 -10 -11 -10 -5 0 -7 5 -4 10 3 6 8 10 11 10
2 0 4 -4 4 -10z m-1565 -136 c10 4 15 -1 15 -15 0 -12 12 -33 28 -48 15 -15
32 -35 38 -46 12 -20 12 -20 45 -1 19 11 37 24 41 30 4 6 11 7 15 2 4 -5 -5
-18 -21 -30 -16 -11 -54 -43 -84 -71 -68 -63 -102 -82 -112 -64 -6 8 -9 5 -12
-12 -4 -24 -5 -23 -17 6 -12 30 -7 120 7 111 4 -2 8 10 9 27 1 17 7 35 13 41
5 5 11 55 12 111 2 89 2 92 5 27 3 -60 7 -73 18 -68z m1203 15 c-3 -8 -7 -3
-11 10 -4 17 -3 21 5 13 5 -5 8 -16 6 -23z m42 27 c0 -2 -7 -7 -16 -10 -8 -3
-12 -2 -9 4 6 10 25 14 25 6z m-124 -44 c-18 -16 -18 -16 -6 6 6 13 14 21 18
18 3 -4 -2 -14 -12 -24z m-40 -17 c1 -8 -4 -11 -11 -8 -8 2 -11 11 -8 19 6 16
16 11 19 -11z m194 1 c0 -2 -9 -6 -20 -9 -11 -3 -18 -1 -14 4 5 9 34 13 34 5z
m-326 -37 c-5 -8 2 -10 22 -6 l28 5 -34 -28 c-36 -29 -82 -38 -73 -14 3 8 9
14 14 14 5 0 9 6 9 14 0 8 6 17 13 19 21 9 28 7 21 -4z m-649 -69 c-3 -5 -10
-10 -16 -10 -5 0 -9 5 -9 10 0 6 7 10 16 10 8 0 12 -4 9 -10z m315 -48 c0 -5
-6 -16 -13 -26 -10 -14 -18 -16 -31 -9 -17 9 -17 11 -1 26 17 18 45 23 45 9z
m-330 -90 c0 -17 -102 -108 -132 -118 -26 -8 -41 14 -25 36 21 29 87 83 87 70
0 -13 43 -3 48 11 5 11 22 12 22 1z m302 -74 c24 -28 18 -71 -14 -105 -11 -12
-26 -33 -33 -45 -8 -16 -19 -22 -36 -20 -17 1 -20 0 -10 -7 11 -7 6 -16 -22
-45 -20 -20 -41 -36 -47 -36 -6 0 -15 -11 -20 -25 -9 -25 -30 -35 -30 -14 0 6
-7 4 -15 -5 -8 -8 -15 -22 -15 -30 0 -9 -7 -16 -16 -16 -8 0 -13 -4 -9 -9 3
-5 -11 -15 -31 -21 -26 -9 -38 -9 -43 -2 -4 7 -12 3 -20 -10 -12 -19 -11 -20
6 -14 27 11 -48 -51 -79 -65 -29 -12 -40 -33 -13 -23 24 9 8 -18 -23 -41 -21
-15 -24 -15 -13 -2 8 10 9 17 3 17 -13 0 -26 -20 -27 -40 0 -8 -6 -14 -14 -12
-16 3 -53 -27 -46 -39 3 -4 0 -11 -6 -15 -8 -4 -9 -3 -5 4 4 7 3 12 -3 12 -5
0 -13 -5 -16 -10 -4 -6 -10 -8 -15 -5 -13 8 -52 -14 -45 -25 3 -5 -9 -19 -27
-30 -36 -22 -53 -26 -43 -10 3 6 -1 7 -10 3 -12 -4 -13 -8 -5 -13 9 -6 9 -9 1
-14 -6 -4 -9 -11 -6 -16 6 -9 -25 -30 -44 -30 -6 0 -11 10 -12 23 0 12 -3 16
-6 10 -2 -7 -9 -13 -14 -13 -6 0 -7 5 -4 10 3 6 -1 13 -9 16 -27 10 -30 68 -7
116 19 41 96 109 139 125 9 4 31 17 47 29 17 12 51 32 78 44 26 12 47 26 47
31 0 13 58 69 70 69 6 0 10 -6 10 -12 0 -7 7 -2 16 10 8 12 20 20 25 17 5 -4
9 0 9 8 0 25 186 204 256 248 19 11 34 24 34 29 0 8 14 11 79 18 7 1 22 -8 33
-20z m-237 -33 c-10 -5 -36 -22 -59 -37 -22 -15 -52 -27 -66 -27 -17 1 -19 3
-7 6 20 5 22 19 5 27 -7 3 -4 4 8 1 32 -8 54 4 54 30 0 18 4 21 25 17 16 -3
25 0 25 8 0 9 4 9 16 -1 15 -12 15 -14 -1 -24z m-330 -55 c7 -11 -32 -62 -71
-92 -21 -17 -26 -18 -39 -5 -13 14 -10 21 30 61 44 45 68 56 80 36z m1058 -75
c-6 -17 -23 -20 -23 -5 0 6 5 10 11 10 5 0 7 5 3 12 -4 7 -3 8 4 4 6 -4 9 -13
5 -21z m-1289 -66 c-4 -8 1 -9 16 -4 18 6 21 3 18 -15 -2 -18 -11 -23 -44 -26
-22 -2 -60 -10 -83 -19 -24 -8 -47 -13 -51 -10 -12 8 -41 -6 -34 -16 3 -5 -2
-6 -11 -3 -14 6 -12 10 10 24 15 10 26 21 26 26 0 10 61 33 102 38 15 2 31 6
34 10 11 10 25 7 17 -5z m-505 -20 c-11 -11 -28 -19 -37 -17 -13 3 -10 8 13
21 41 22 49 21 24 -4z m637 -76 c-1 -7 -5 -15 -9 -18 -4 -3 -5 -2 -2 2 3 3 -3
12 -13 19 -16 12 -15 13 4 11 12 0 21 -7 20 -14z m489 7 c-3 -5 -16 -10 -28
-9 -20 1 -20 2 3 9 14 4 26 8 28 9 2 1 0 -3 -3 -9z m-910 -10 c11 -5 14 -9 8
-9 -7 -1 -12 -7 -10 -13 1 -7 -6 -13 -15 -13 -9 0 -20 -4 -24 -8 -4 -4 -16 -7
-26 -7 -11 0 -26 -7 -34 -15 -17 -17 -59 -21 -49 -5 4 7 -3 9 -22 5 l-28 -6
25 15 c14 8 21 16 15 16 -5 0 6 9 25 20 19 10 42 17 50 15 8 -3 22 0 30 5 18
12 28 11 55 0z m19 -109 c3 -4 -6 -13 -20 -20 -15 -6 -23 -7 -19 -1 8 13 2 13
-30 -2 -14 -6 -25 -18 -25 -26 0 -8 -6 -12 -14 -9 -8 3 -20 -1 -27 -9 -7 -8
-27 -21 -46 -29 -18 -8 -33 -19 -33 -24 0 -6 -7 -11 -16 -11 -13 0 -14 3 -5
13 6 8 7 18 3 22 -4 5 -1 5 6 1 6 -4 12 -2 12 3 0 6 9 11 21 11 11 0 18 4 15
9 -3 4 18 19 47 33 103 50 121 55 131 39z m-342 -27 c-15 -12 -15 -12 4 -8 12
3 25 0 29 -7 5 -8 4 -10 -3 -5 -6 4 -25 0 -41 -9 -35 -17 -45 -19 -36 -5 4 6
-2 7 -17 1 -13 -5 -22 -14 -21 -20 2 -6 -4 -8 -12 -5 -22 9 -18 34 4 34 11 0
23 5 26 10 3 6 16 10 28 10 15 0 18 3 9 8 -8 6 -2 9 17 9 27 0 28 -2 13 -13z
m1054 -13 c-9 -14 -76 -51 -76 -42 0 5 14 14 30 21 17 7 30 16 30 21 0 5 5 9
11 9 5 0 8 -4 5 -9z m-635 -24 c-6 -8 -8 -16 -5 -19 3 -3 0 -9 -7 -14 -8 -4
-10 -3 -5 4 4 7 2 12 -5 12 -7 0 -4 7 7 15 24 18 30 19 15 2z m-551 -2 c0 -2
-10 -9 -22 -15 -22 -11 -22 -10 -4 4 21 17 26 19 26 11z m1636 -25 c8 0 14 -2
14 -4 0 -2 3 -11 6 -19 4 -11 -1 -13 -22 -9 -24 4 -26 3 -22 -21 4 -19 -1 -28
-19 -38 -12 -7 -23 -16 -23 -21 0 -5 5 -6 10 -3 6 3 10 1 10 -4 0 -6 -6 -11
-12 -11 -9 0 -8 -4 2 -11 12 -9 12 -10 -5 -6 -18 3 -20 -1 -16 -40 2 -36 0
-43 -15 -43 -16 0 -17 -2 -4 -10 11 -7 12 -10 2 -10 -9 0 -11 -7 -7 -21 5 -16
4 -19 -5 -14 -10 6 -12 1 -8 -20 3 -15 -1 -39 -8 -54 -8 -14 -14 -36 -14 -49
0 -18 -5 -23 -22 -20 -20 3 -23 -3 -29 -45 -4 -26 -3 -62 1 -79 5 -17 7 -28 4
-25 -8 8 -34 -18 -35 -35 0 -7 -4 -3 -9 10 -5 12 -14 22 -20 22 -5 0 -10 -10
-10 -22 0 -19 -2 -20 -10 -8 -8 13 -10 12 -10 -4 0 -18 -1 -18 -19 -2 -16 15
-18 29 -16 112 2 52 6 98 10 102 4 4 4 -3 1 -16 -5 -15 -3 -24 8 -28 10 -4 16
-18 16 -38 0 -28 3 -31 30 -32 28 -2 30 1 31 35 0 20 2 44 4 54 2 9 -1 15 -6
11 -5 -3 -10 -17 -10 -32 l-1 -27 -8 30 -8 30 -2 -35 c-2 -29 -4 -31 -7 -10
-3 14 -11 29 -19 33 -9 5 -15 26 -15 55 -2 46 -2 46 -9 12 l-7 -35 -3 35 -3
35 -7 -35 c-7 -31 -8 -29 -9 22 0 31 4 60 10 64 6 3 8 18 5 33 -5 17 -4 22 3
12 12 -18 25 39 16 71 -5 18 -4 20 4 8 9 -12 11 -8 9 19 -2 21 2 36 12 41 60
32 152 71 187 80 23 6 45 16 49 22 6 9 9 9 12 0 2 -7 10 -12 18 -12z m-2192
-5 c-10 -8 -23 -15 -28 -15 -6 0 -1 7 10 15 10 8 23 15 28 15 6 0 1 -7 -10
-15z m556 -23 c-8 -3 -37 -15 -64 -28 -42 -20 -51 -22 -68 -10 -13 10 -16 16
-8 21 6 4 14 5 16 2 3 -3 16 0 28 7 12 6 42 12 67 12 24 1 37 -1 29 -4z m-186
-47 c-14 -11 -15 -14 -3 -9 10 3 20 1 24 -5 3 -6 -1 -11 -9 -11 -9 0 -24 -8
-34 -18 -18 -18 -64 -24 -77 -10 -10 10 34 30 48 22 6 -4 9 -3 4 1 -4 5 5 17
20 27 34 22 55 24 27 3z m296 10 c0 -3 -27 -18 -60 -35 -33 -17 -60 -36 -60
-43 0 -15 -58 -39 -73 -30 -6 3 -7 1 -4 -4 4 -6 -7 -16 -23 -23 -16 -7 -28
-15 -26 -19 2 -3 -7 -7 -20 -7 -33 -2 -30 13 6 34 16 9 30 23 30 30 0 8 9 16
20 19 11 3 20 9 20 14 0 5 8 9 18 9 11 0 27 9 38 21 13 14 27 19 46 17 15 -3
24 0 21 5 -3 5 3 7 13 3 11 -3 26 -1 34 4 17 11 20 12 20 5z m815 -63 c-8 -8
-25 10 -19 20 4 6 9 5 15 -3 4 -7 6 -15 4 -17z m712 6 c-3 -8 -6 -5 -6 6 -1
11 2 17 5 13 3 -3 4 -12 1 -19z m-1137 -8 c104 -21 115 -27 115 -69 0 -33 -3
-36 -37 -44 -21 -5 -38 -14 -38 -19 0 -6 11 -7 27 -3 23 5 25 4 14 -9 -7 -8
-26 -18 -42 -21 -17 -4 -33 -13 -36 -21 -3 -8 -13 -12 -22 -10 -9 3 -23 1 -31
-5 -12 -9 -11 -10 8 -6 24 5 32 -16 10 -29 -6 -4 -8 -3 -5 3 4 6 -4 13 -17 15
-18 4 -30 -2 -46 -24 -11 -15 -26 -28 -32 -28 -7 0 -7 4 0 13 8 9 3 13 -19 14
-16 1 -29 -2 -29 -7 0 -6 4 -10 9 -10 5 0 11 -8 13 -18 3 -11 0 -19 -7 -19 -7
0 -11 6 -8 14 8 20 -11 15 -25 -7 -7 -11 -17 -20 -24 -20 -7 0 -3 6 7 14 13 9
16 19 10 32 -7 17 -9 17 -12 2 -2 -9 -10 -15 -18 -12 -19 8 -75 -24 -75 -41 0
-18 -17 -20 -22 -3 -5 13 -28 2 -28 -13 0 -6 5 -7 10 -4 11 7 13 -6 4 -29 -3
-9 -14 -16 -23 -16 -13 1 -13 2 3 11 15 9 16 13 5 20 -25 16 -49 10 -49 -11 0
-11 -4 -20 -10 -20 -5 0 -10 5 -10 12 0 7 -11 -3 -24 -22 -13 -19 -22 -38 -20
-42 2 -4 -1 -10 -7 -14 -8 -4 -9 -3 -5 4 11 18 -23 15 -41 -3 -9 -10 -23 -13
-36 -9 -15 5 -19 3 -15 -8 4 -10 -1 -14 -16 -14 -11 1 -20 -3 -19 -9 0 -5 -5
-16 -13 -23 -12 -11 -14 -10 -14 3 0 8 -5 15 -11 15 -6 0 -9 -7 -5 -15 3 -8 1
-15 -4 -15 -9 0 -14 14 -11 33 2 11 -13 9 -26 -4 -13 -13 -36 -3 -28 12 7 11
-5 12 -22 1 -7 -4 -9 -13 -4 -21 5 -7 14 -10 20 -7 7 5 11 -1 11 -13 0 -12 5
-21 10 -21 6 0 10 9 10 20 0 11 4 20 9 20 4 0 8 -10 7 -22 -1 -16 -8 -24 -24
-26 -13 -2 -26 -10 -29 -18 -5 -15 -33 -20 -33 -6 0 5 -10 8 -22 6 -13 -1 -27
-3 -33 -3 -5 -1 -3 -6 5 -11 12 -8 12 -10 -5 -10 -17 0 -17 -2 -5 -10 11 -7
12 -10 2 -10 -8 0 -16 9 -19 19 -4 16 -9 18 -29 11 -23 -9 -29 -3 -25 23 0 4
-5 7 -12 7 -8 0 -7 4 3 10 13 8 12 10 -4 10 -16 0 -18 6 -13 40 3 23 13 52 22
66 24 37 162 136 257 184 46 23 90 48 99 56 8 8 18 14 22 14 4 0 57 32 118 71
113 72 136 82 244 105 65 13 68 13 165 -6z m-754 -25 c-11 -8 -24 -15 -29 -15
-4 0 -5 -4 -2 -10 3 -6 -1 -7 -10 -4 -18 7 -15 11 17 30 32 17 47 16 24 -1z
m1164 -9 c0 -2 -12 -11 -27 -20 l-28 -17 24 20 c23 21 31 25 31 17z m-1253
-21 c0 -8 -6 -16 -13 -19 -7 -3 -10 2 -7 15 6 22 20 26 20 4z m-312 -11 c-11
-8 -19 -19 -18 -24 2 -5 -3 -7 -11 -4 -17 6 -31 -12 -16 -21 6 -4 7 -11 4 -17
-4 -7 -9 -6 -14 1 -5 9 -11 7 -21 -5 -12 -15 -12 -17 0 -9 9 5 12 4 7 -3 -4
-6 -12 -9 -19 -6 -7 2 -22 -4 -32 -16 -10 -11 -14 -20 -10 -20 12 0 -26 -40
-50 -52 -14 -8 -12 -1 10 23 17 18 22 27 12 20 -9 -8 -20 -11 -23 -8 -12 12
166 157 191 157 5 0 1 -8 -10 -16z m268 -8 c6 -16 -1 -26 -17 -26 -6 0 -4 5 4
10 12 8 11 10 -7 10 -13 0 -23 5 -23 10 0 15 37 12 43 -4z m1227 0 c0 -2 -8
-10 -17 -17 -16 -13 -17 -12 -4 4 13 16 21 21 21 13z m-1318 -54 c-7 -2 -10
-8 -7 -13 4 -5 -2 -6 -11 -2 -12 4 -15 3 -10 -5 5 -8 2 -10 -9 -6 -9 4 -15 2
-13 -2 2 -5 -22 -34 -52 -64 -30 -30 -54 -60 -52 -66 1 -7 -14 -21 -33 -33
-46 -27 -54 -27 -24 0 21 18 22 20 4 14 -13 -4 -8 4 15 25 19 16 39 30 44 30
5 0 7 3 4 6 -4 3 -16 1 -27 -5 -17 -10 -20 -9 -15 4 4 8 10 15 16 15 5 0 7 4
4 9 -3 5 1 15 10 22 11 9 17 10 23 1 4 -7 16 -5 39 10 17 11 32 22 32 25 0 2
-5 1 -11 -3 -7 -4 -10 1 -7 12 2 10 19 29 38 41 31 22 35 22 44 6 6 -12 6 -18
-2 -21z m48 13 c-7 -8 -17 -15 -23 -15 -6 0 -2 7 9 15 25 19 30 19 14 0z
m1207 -1 c-3 -3 -12 -4 -19 -1 -8 3 -5 6 6 6 11 1 17 -2 13 -5z m-1116 -49
c15 10 10 -12 -6 -25 -8 -7 -15 -9 -15 -5 0 4 -8 1 -17 -6 -16 -13 -17 -12 -4
4 7 9 10 17 7 17 -4 0 -1 10 6 23 11 19 13 20 16 4 2 -9 8 -15 13 -12z m45 13
c-10 -6 -22 -6 -26 -2 -5 5 3 10 18 11 22 1 24 0 8 -9z m-456 -12 c0 -2 -8
-10 -17 -17 -16 -13 -17 -12 -4 4 13 16 21 21 21 13z m-97 -23 c4 -3 3 -11 -2
-17 -4 -6 -16 -33 -27 -61 -10 -27 -21 -52 -24 -55 -11 -10 -70 -131 -70 -144
0 -8 -64 -79 -143 -157 -79 -79 -146 -152 -150 -163 -4 -10 -13 -16 -21 -13
-8 3 -27 -5 -43 -19 -26 -22 -22 -31 10 -25 11 2 0 -18 -26 -46 -23 -26 -37
-29 -37 -9 0 9 -9 12 -27 9 l-28 -5 30 26 c17 14 25 25 19 26 -6 0 -17 -7 -24
-15 -15 -18 -31 -10 -23 10 3 10 -1 15 -11 15 -22 0 -9 24 36 71 228 237 308
327 308 346 0 19 52 83 62 77 6 -4 8 -3 5 3 -4 6 1 17 10 24 14 12 16 12 8 -1
-8 -13 -6 -13 8 -1 9 7 14 17 11 22 -8 13 58 76 97 93 39 18 43 18 52 9z
m1382 -3 c3 -5 1 -10 -4 -10 -6 0 -11 5 -11 10 0 6 2 10 4 10 3 0 8 -4 11 -10z
m-950 -10 c-3 -5 0 -10 7 -10 9 0 9 -3 -2 -10 -8 -5 -15 -15 -15 -21 0 -13
-101 -78 -120 -78 -5 0 -2 4 8 10 9 5 17 17 17 26 0 8 6 13 13 10 8 -3 20 -1
28 5 11 8 9 8 -6 4 l-20 -6 20 16 c11 8 19 19 18 24 -2 5 5 6 14 3 10 -4 14
-2 9 5 -3 6 2 15 11 21 23 13 26 13 18 1z m855 -45 c0 -8 -2 -15 -4 -15 -2 0
-6 7 -10 15 -3 8 -1 15 4 15 6 0 10 -7 10 -15z m-1792 -9 c-25 -18 -23 -21 17
-22 36 -1 75 -27 75 -51 0 -7 5 -13 10 -13 6 0 10 -6 10 -14 0 -8 5 -27 11
-43 7 -15 12 -37 13 -48 1 -11 5 -25 9 -32 4 -6 1 -18 -7 -26 -8 -8 -12 -17
-9 -21 9 -8 -42 -71 -79 -97 -17 -13 -28 -17 -23 -9 6 10 4 12 -8 7 -27 -10
-41 22 -82 198 -30 124 -30 122 0 149 15 14 36 27 48 29 12 2 24 5 27 5 3 1
-3 -5 -12 -12z m1598 -45 c-4 -5 0 -12 6 -15 7 -3 3 -3 -9 0 -14 3 -23 1 -23
-6 0 -6 -5 -8 -11 -4 -8 4 -3 12 12 20 29 16 32 17 25 5z m1244 -60 c-6 -16
-9 -35 -5 -40 3 -6 1 -11 -6 -11 -8 0 -9 10 -5 31 3 17 6 41 6 52 0 16 3 18
11 10 9 -9 9 -19 -1 -42z m-2261 -4 c-19 -15 -33 -32 -32 -37 2 -8 -38 -36
-44 -32 -9 6 -23 0 -23 -9 0 -8 4 -8 14 0 9 8 16 8 20 2 3 -5 -8 -21 -26 -35
-18 -15 -25 -24 -15 -20 26 9 20 -2 -14 -27 -40 -28 -61 -12 -27 21 12 13 16
19 9 15 -27 -15 27 51 64 79 19 15 33 31 30 36 -2 4 3 7 12 6 10 0 18 5 19 12
2 18 2 18 25 18 19 0 18 -4 -12 -29z m2238 11 c-3 -8 -6 -5 -6 6 -1 11 2 17 5
13 3 -3 4 -12 1 -19z m-1178 8 c-2 -2 -17 -6 -34 -10 -22 -5 -26 -4 -15 4 14
9 59 15 49 6z m146 -6 c-3 -5 -12 -10 -18 -10 -7 0 -6 4 3 10 19 12 23 12 15
0z m-1138 -102 c-9 -5 -14 -15 -11 -22 3 -7 -3 -16 -13 -19 -10 -4 -28 -14
-40 -23 -21 -15 -23 -15 -23 0 0 9 7 19 15 22 8 4 15 12 15 20 0 18 39 44 57
37 13 -5 13 -7 0 -15z m2183 -12 c0 -3 -4 -8 -10 -11 -5 -3 -10 -1 -10 4 0 6
5 11 10 11 6 0 10 -2 10 -4z m-83 -28 c-3 -8 -6 -5 -6 6 -1 11 2 17 5 13 3 -3
4 -12 1 -19z m-2202 -71 c-14 -10 -23 -22 -21 -26 3 -4 -4 -7 -14 -7 -12 0
-16 5 -12 16 9 27 20 35 46 35 l26 0 -25 -18z m204 -51 c53 -64 -16 -218 -121
-272 -16 -8 -28 -20 -28 -27 0 -7 -13 -23 -30 -35 -16 -13 -30 -29 -30 -37 0
-18 -37 -38 -52 -29 -6 4 -8 3 -5 -3 6 -10 -92 -93 -109 -93 -13 0 29 39 48
46 11 3 17 12 14 19 -3 9 0 12 9 8 9 -3 18 3 22 13 4 11 14 25 22 32 13 11 12
11 -7 2 -28 -14 -40 -6 -23 14 10 12 8 16 -10 21 -17 6 -19 9 -8 16 11 7 11 9
-3 9 -9 0 -20 -4 -23 -10 -3 -5 -2 -10 2 -10 5 0 10 -10 10 -22 1 -13 7 -24
13 -26 17 -6 11 -19 -11 -25 -12 -3 -18 -10 -14 -16 4 -7 0 -8 -10 -4 -14 5
-14 8 -3 15 10 8 10 9 -2 5 -8 -2 -15 -10 -15 -18 0 -10 -12 -13 -43 -12 -24
1 -42 -2 -42 -9 0 -5 7 -8 15 -5 8 4 17 3 19 -2 7 -10 -54 -55 -74 -56 -8 0
-15 -5 -15 -12 0 -6 -4 -15 -9 -20 -5 -5 -6 -2 -1 6 5 9 3 12 -6 9 -8 -3 -13
-12 -11 -22 2 -9 -1 -16 -7 -16 -12 0 -9 24 6 41 16 21 12 48 -5 41 -10 -3
-13 -1 -8 6 4 7 2 12 -3 12 -14 0 -14 -6 -1 -30 7 -13 6 -21 -5 -30 -8 -7 -12
-17 -8 -23 3 -6 1 -7 -6 -3 -12 8 -76 -32 -67 -41 3 -3 18 2 33 11 27 17 27
17 -2 -8 -16 -14 -32 -21 -33 -16 -2 6 -9 7 -14 4 -7 -4 -8 -2 -4 4 4 7 -1 10
-14 9 -11 -1 -20 -7 -20 -14 0 -7 -6 -10 -13 -7 -30 11 -13 29 27 30 28 0 40
4 38 13 -1 7 8 21 20 32 20 17 20 19 3 10 -11 -5 -28 -18 -38 -29 -11 -12 -26
-17 -41 -15 -22 5 -23 8 -15 45 25 111 134 227 295 317 44 24 114 69 157 100
43 31 99 71 124 89 49 35 111 43 132 18z m326 4 c3 -6 -1 -7 -9 -4 -18 7 -21
14 -7 14 6 0 13 -4 16 -10z m-749 -19 c-4 -5 0 -12 6 -15 7 -3 2 -3 -11 0 -17
4 -22 2 -19 -7 8 -21 -10 -49 -31 -49 -10 0 -24 -7 -31 -15 -15 -19 -23 -14
-14 9 3 9 10 13 15 10 5 -3 9 2 9 11 0 10 6 15 13 12 8 -3 20 -1 28 4 11 8 11
9 -3 7 -26 -5 -24 15 3 29 29 15 42 16 35 4z m-64 -112 c-12 -11 -27 -17 -33
-13 -8 4 -3 12 12 20 36 20 46 17 21 -7z m1613 2 c-8 -14 -94 -45 -102 -37 -3
3 0 6 8 6 8 1 32 9 54 20 47 23 48 23 40 11z m-1729 -140 c-3 -4 -30 -25 -61
-46 -33 -23 -51 -41 -44 -46 8 -5 8 -8 0 -13 -6 -4 -8 -12 -5 -18 4 -7 2 -8
-4 -4 -6 4 -21 2 -32 -4 -16 -9 -18 -8 -14 5 4 8 12 15 19 15 8 0 17 5 21 12
5 8 2 9 -9 5 -10 -3 -17 -2 -17 3 0 6 4 10 8 10 5 0 35 20 68 45 56 42 82 56
70 36z m-229 -48 c2 -25 -1 -31 -15 -29 -9 2 -19 13 -20 26 -2 14 0 20 7 16 7
-5 8 -1 4 10 -4 12 -2 15 8 12 7 -2 15 -18 16 -35z m33 2 c-7 -8 -17 -12 -22
-9 -6 4 -5 10 3 15 22 14 33 10 19 -6z m1530 5 c-8 -5 -19 -10 -25 -10 -5 0
-3 5 5 10 8 5 20 10 25 10 6 0 3 -5 -5 -10z m-1650 -80 c-43 -38 -49 -58 -6
-22 l21 17 -19 -23 c-11 -12 -26 -20 -33 -18 -7 3 -15 1 -18 -4 -4 -6 -14 -10
-23 -10 -18 0 41 55 71 65 9 4 14 11 11 17 -4 6 -2 8 4 4 6 -3 13 -2 17 4 3 5
9 10 13 10 4 0 -13 -18 -38 -40z m60 12 c0 -5 -7 -9 -15 -9 -8 0 -12 4 -9 9 3
4 9 8 15 8 5 0 9 -4 9 -8z m590 -87 c-11 -13 -7 -15 26 -16 22 -1 31 -3 21 -6
-11 -3 -35 -2 -54 2 -29 5 -32 9 -23 21 7 8 19 14 27 14 13 0 13 -3 3 -15z
m243 8 c-7 -2 -21 -2 -30 0 -10 3 -4 5 12 5 17 0 24 -2 18 -5z m-986 -18 c-5
-11 -1 -12 20 -4 36 14 35 8 -6 -26 -20 -16 -30 -23 -23 -13 21 26 -6 34 -32
9 -12 -13 -15 -21 -7 -19 7 2 16 -3 19 -11 3 -8 0 -11 -7 -7 -7 4 -11 -1 -11
-13 0 -11 -5 -23 -10 -26 -8 -5 -8 -11 0 -20 8 -10 6 -15 -9 -20 -25 -8 -27
-23 -5 -32 10 -4 22 1 29 10 7 10 17 17 24 17 38 0 -23 -69 -88 -100 -28 -13
-51 -28 -51 -34 0 -16 -60 -52 -99 -61 -18 -4 -35 -13 -38 -21 -4 -12 -33 -21
-33 -10 0 2 -3 12 -6 20 -5 12 -2 15 12 9 12 -4 15 -3 10 6 -5 7 -14 10 -21 7
-8 -3 -29 -1 -47 5 -27 8 -42 5 -80 -12 -27 -13 -48 -26 -48 -31 0 -4 -8 -8
-17 -8 -24 -1 -62 -22 -61 -35 0 -5 -28 -26 -62 -47 -46 -28 -66 -36 -75 -28
-9 8 -15 8 -20 1 -3 -6 17 -23 44 -38 53 -30 60 -41 51 -88 -5 -29 -26 -38
-24 -10 1 8 -4 11 -14 8 -10 -4 -13 -2 -8 5 11 18 -10 14 -25 -5 -11 -13 -11
-17 -1 -20 20 -7 14 -29 -14 -41 -14 -7 -23 -16 -20 -21 3 -5 -8 -14 -26 -20
-22 -8 -34 -8 -38 -1 -5 8 -15 7 -34 -1 -19 -9 -25 -17 -20 -31 3 -10 2 -18
-3 -17 -12 3 -55 -16 -54 -24 1 -4 -2 -6 -6 -4 -5 1 -7 5 -6 10 5 13 -15 8
-31 -9 -21 -21 -20 -30 1 -13 13 11 15 11 9 1 -8 -14 -47 -32 -80 -39 -11 -2
-25 -8 -32 -14 -14 -12 -79 40 -89 72 -4 10 -13 19 -22 19 -14 0 -14 -2 0 -24
15 -22 14 -24 -34 -61 -27 -20 -49 -41 -49 -45 0 -16 -61 -53 -71 -43 -7 7 -1
16 15 27 15 9 26 22 26 29 0 6 -16 -4 -35 -25 -18 -20 -35 -34 -38 -32 -2 3
-10 -4 -18 -13 -13 -16 -12 -17 4 -4 12 9 17 10 17 2 0 -7 6 -9 12 -6 7 3 4 0
-6 -7 -11 -7 -30 -23 -42 -36 -16 -16 -24 -20 -30 -11 -5 8 -3 10 7 4 8 -5 11
-5 7 0 -4 4 -2 15 5 24 6 9 -5 3 -25 -12 -21 -16 -35 -21 -32 -13 3 8 12 17
20 20 9 3 13 10 9 15 -8 14 50 70 90 86 35 15 61 40 28 28 -16 -6 -16 -5 -4
11 8 9 20 15 28 12 8 -3 12 -2 8 3 -3 5 13 18 35 28 38 17 70 64 93 135 6 18
133 117 213 167 53 32 78 37 104 21 13 -8 12 -11 -5 -24 -11 -9 -15 -16 -9
-16 6 0 25 14 42 30 18 17 37 30 44 30 8 -1 5 -7 -6 -15 -22 -17 -17 -29 8
-19 9 3 16 13 16 21 0 7 18 22 41 32 22 10 40 22 39 27 0 5 13 9 30 10 16 1
27 -2 24 -7 -6 -10 9 -12 19 -2 4 3 -1 11 -10 18 -14 10 -12 14 16 34 22 16
39 21 59 16 17 -3 35 0 47 10 19 14 19 15 -5 12 -21 -2 -24 2 -25 27 0 27 7
34 85 74 99 51 206 117 237 146 100 96 124 108 116 59 l-4 -28 24 25 c20 22
55 48 66 49 2 1 1 -6 -2 -14z m900 -1 c9 -9 26 -8 68 1 62 15 88 9 173 -34 47
-24 49 -28 25 -47 -17 -12 -17 -13 -1 -14 9 0 19 4 23 10 9 14 35 1 29 -15 -3
-8 6 -20 23 -29 36 -20 87 -65 80 -72 -2 -3 -14 -6 -25 -7 -11 0 -19 -5 -16
-9 3 -4 18 -5 34 -1 19 3 30 1 30 -6 0 -6 -4 -11 -10 -11 -5 0 -10 -4 -10 -10
0 -5 7 -10 15 -10 13 0 14 -2 3 -14 -9 -9 -17 -11 -25 -4 -7 6 -24 6 -47 -1
-29 -7 -36 -7 -36 5 0 8 -3 14 -7 15 -5 0 -16 2 -26 4 -13 2 -17 -1 -13 -11 3
-9 1 -12 -4 -9 -6 3 -10 12 -10 19 0 8 -9 16 -19 19 -12 3 -18 0 -17 -7 2 -6
1 -8 -1 -3 -3 4 -8 5 -13 2 -4 -3 -6 3 -3 13 3 13 -2 18 -22 20 -14 1 -35 6
-45 12 -15 8 -22 6 -30 -7 -10 -15 -11 -15 -6 -1 3 11 -5 20 -27 28 -82 30
-112 46 -138 73 -16 16 -27 33 -23 38 3 5 -1 9 -10 9 -9 0 -3 12 17 33 34 35
44 39 64 21z m-277 3 c0 -2 -10 -12 -22 -23 l-23 -19 19 23 c18 21 26 27 26
19z m670 -133 c42 -36 32 -41 -16 -9 -49 33 -51 35 -31 35 8 0 30 -12 47 -26z
m60 -44 c0 -5 -2 -10 -4 -10 -3 0 -8 5 -11 10 -3 6 -1 10 4 10 6 0 11 -4 11
-10z m-2020 -511 c0 -11 -4 -18 -10 -14 -5 3 -7 12 -3 20 7 21 13 19 13 -6z
m-10 -39 c0 -5 -5 -10 -11 -10 -5 0 -7 5 -4 10 3 6 8 10 11 10 2 0 4 -4 4 -10z
m440 -24 c0 -2 -7 -7 -16 -10 -8 -3 -12 -2 -9 4 6 10 25 14 25 6z m-626 -54
c2 -4 -4 -8 -14 -8 -10 0 -16 4 -14 8 3 4 9 8 14 8 5 0 11 -4 14 -8z m21 -22
c-3 -5 -1 -10 5 -10 6 0 8 -5 4 -11 -4 -8 -9 -7 -15 2 -7 12 -3 29 7 29 3 0 2
-4 -1 -10z m-126 -34 c7 -8 8 -17 3 -20 -6 -3 -12 3 -15 14 -6 24 -4 25 12 6z
m-469 -181 c0 -9 -7 -18 -15 -21 -8 -4 -15 -12 -15 -20 0 -8 -5 -14 -10 -14
-6 0 -13 -8 -17 -17 -3 -10 -27 -41 -52 -68 -39 -43 -73 -92 -90 -129 -2 -5 4
-6 14 -2 14 5 16 3 10 -11 -7 -16 -39 -103 -79 -213 -7 -19 -15 -33 -18 -30
-7 7 -58 -55 -58 -71 0 -11 -3 -11 -11 1 -8 12 -9 9 -5 -13 4 -18 1 -33 -8
-43 -19 -19 -36 -78 -36 -126 0 -21 -4 -38 -10 -38 -5 0 -10 17 -11 38 0 27
-2 32 -8 18 -5 -14 -10 -16 -15 -8 -4 7 -4 17 -1 23 12 18 -4 59 -20 53 -10
-4 -15 0 -15 11 0 12 5 15 20 10 26 -8 26 2 0 23 -19 16 -20 22 -10 77 21 110
74 244 125 314 66 89 77 101 95 101 21 0 123 85 128 107 2 7 8 13 13 13 5 0 9
7 9 16 0 8 4 13 9 9 5 -3 12 -1 16 5 9 15 27 12 19 -2 -4 -7 2 -5 12 5 23 21
34 22 34 2z m330 -169 c0 -3 -4 -8 -10 -11 -5 -3 -10 -1 -10 4 0 6 5 11 10 11
6 0 10 -2 10 -4z"/>
<path d="M5914 4625 c-4 -9 -11 -15 -18 -14 -33 4 -39 -1 -25 -18 12 -15 12
-16 -3 -10 -10 3 -20 2 -23 -3 -4 -6 3 -10 15 -10 12 0 18 -4 15 -10 -3 -5
-20 -7 -37 -3 -31 6 -31 6 -12 -14 19 -19 19 -19 46 1 15 12 27 25 27 30 1 5
15 22 33 38 29 26 30 28 9 28 -12 0 -24 -7 -27 -15z"/>
<path d="M5947 4543 c-11 -10 -8 -20 8 -27 10 -4 15 1 15 14 0 20 -11 26 -23
13z"/>
<path d="M5755 4430 c-16 -7 -17 -9 -3 -9 9 -1 20 4 23 9 7 11 7 11 -20 0z"/>
<path d="M4737 4243 c-4 -3 -7 -16 -6 -27 0 -19 1 -19 10 3 10 24 8 36 -4 24z"/>
<path d="M4965 3652 c-16 -9 -32 -18 -34 -19 -2 -2 -2 -5 1 -8 6 -6 65 23 73
36 9 14 -6 10 -40 -9z"/>
<path d="M4228 3734 c-39 -21 -35 -28 5 -8 37 19 44 24 31 24 -5 -1 -21 -8
-36 -16z"/>
<path d="M5197 3348 c-8 -35 -19 -74 -23 -87 -5 -16 -4 -22 3 -18 12 7 48 156
40 163 -3 3 -12 -23 -20 -58z"/>
<path d="M5322 3200 c0 -19 2 -27 5 -17 2 9 2 25 0 35 -3 9 -5 1 -5 -18z"/>
<path d="M5202 3165 c0 -16 2 -22 5 -12 2 9 2 23 0 30 -3 6 -5 -1 -5 -18z"/>
<path d="M5310 3140 c0 -5 5 -10 10 -10 6 0 10 5 10 10 0 6 -4 10 -10 10 -5 0
-10 -4 -10 -10z"/>
<path d="M4336 3282 c-3 -6 -1 -14 5 -17 14 -9 20 -2 10 14 -6 8 -11 9 -15 3z"/>
<path d="M4273 3253 c-7 -3 -13 -9 -13 -14 0 -6 6 -7 13 -2 6 4 20 6 30 5 9
-2 17 -1 17 1 0 7 -34 14 -47 10z"/>
<path d="M4196 3211 c-7 -11 22 -23 36 -15 6 4 5 10 -3 15 -18 11 -26 11 -33
0z"/>
<path d="M3835 3028 c-10 -6 -37 -16 -58 -23 -21 -6 -38 -15 -37 -19 1 -5 -4
-13 -12 -17 -9 -6 -9 -9 -1 -9 6 0 18 7 27 15 20 20 63 36 80 29 8 -3 19 3 26
15 12 23 5 26 -25 9z"/>
<path d="M3685 2950 c-3 -5 1 -10 9 -10 9 0 16 5 16 10 0 6 -4 10 -9 10 -6 0
-13 -4 -16 -10z"/>
<path d="M3502 2913 c-17 -3 -22 -10 -20 -25 2 -12 10 -23 18 -25 12 -4 13 -3
1 5 -16 11 -7 32 14 32 8 0 17 5 20 10 3 6 3 9 -2 9 -4 -1 -18 -4 -31 -6z"/>
<path d="M3580 2880 c0 -19 11 -26 23 -14 8 8 -3 34 -14 34 -5 0 -9 -9 -9 -20z"/>
<path d="M3538 2873 c6 -2 18 -2 25 0 6 3 1 5 -13 5 -14 0 -19 -2 -12 -5z"/>
<path d="M3310 3289 c-22 -18 -22 -19 -3 -10 12 6 25 16 28 21 9 15 3 12 -25
-11z"/>
<path d="M3175 3130 c-3 -5 -2 -10 4 -10 5 0 13 5 16 10 3 6 2 10 -4 10 -5 0
-13 -4 -16 -10z"/>
<path d="M3148 2609 c-32 -16 -58 -32 -58 -35 0 -3 6 -4 14 -1 8 3 17 1 19 -6
3 -9 8 -8 21 2 9 8 14 16 11 19 -3 3 12 16 33 28 53 33 28 29 -40 -7z"/>
<path d="M3045 2580 c-3 -5 -2 -10 4 -10 5 0 13 5 16 10 3 6 2 10 -4 10 -5 0
-13 -4 -16 -10z"/>
<path d="M3063 2540 c-3 -11 -10 -20 -15 -20 -6 0 -8 -7 -4 -15 3 -8 1 -15 -4
-15 -6 0 -10 7 -10 15 0 8 -5 15 -11 15 -5 0 -7 -4 -4 -10 3 -5 -1 -10 -10
-10 -11 0 -15 5 -11 15 3 8 1 15 -5 15 -6 0 -7 4 -4 10 3 6 -1 7 -10 3 -12 -4
-13 -8 -5 -13 9 -6 7 -11 -6 -19 -11 -7 -13 -10 -4 -8 8 2 20 -5 27 -17 7 -12
12 -15 13 -8 0 16 30 16 30 0 0 -7 14 2 30 20 30 34 39 62 19 62 -6 0 -13 -9
-16 -20z"/>
<path d="M2868 2453 c6 -2 10 -9 6 -14 -3 -5 0 -9 6 -9 6 0 8 -4 5 -10 -3 -5
-1 -10 4 -10 6 0 11 6 11 13 0 16 -20 37 -34 36 -6 0 -5 -3 2 -6z"/>
<path d="M2844 2395 c-10 -8 -14 -15 -8 -15 6 0 17 7 24 15 16 19 9 19 -16 0z"/>
<path d="M2795 2390 c-3 -5 -2 -10 4 -10 5 0 13 5 16 10 3 6 2 10 -4 10 -5 0
-13 -4 -16 -10z"/>
<path d="M2746 2355 c-14 -10 -17 -18 -10 -25 12 -12 44 -3 44 13 0 7 -4 7
-12 -1 -20 -20 -32 -13 -13 8 21 23 18 25 -9 5z"/>
<path d="M2630 2320 c-13 -8 -12 -10 3 -10 9 0 17 5 17 10 0 12 -1 12 -20 0z"/>
<path d="M2656 2284 c-4 -10 -1 -14 6 -12 15 5 23 28 10 28 -5 0 -13 -7 -16
-16z"/>
<path d="M2074 2225 c-18 -15 -18 -15 5 -13 14 2 26 9 29 16 5 17 -10 15 -34
-3z"/>
<path d="M1935 2146 c-19 -14 -19 -15 -1 -22 20 -8 52 7 49 22 -3 15 -27 15
-48 0z"/>
<path d="M2076 2134 c-21 -20 -20 -34 2 -34 21 1 52 23 52 39 0 16 -36 13 -54
-5z"/>
<path d="M1845 2077 c-12 -10 -14 -16 -7 -21 13 -8 52 10 52 24 0 14 -23 12
-45 -3z"/>
<path d="M1982 2048 c-16 -16 -15 -48 1 -48 19 0 37 21 37 42 0 21 -20 24 -38
6z"/>
<path d="M1723 2043 c9 -2 23 -2 30 0 6 3 -1 5 -18 5 -16 0 -22 -2 -12 -5z"/>
<path d="M1525 1870 c-3 -6 1 -7 9 -4 18 7 21 14 7 14 -6 0 -13 -4 -16 -10z"/>
<path d="M1480 1780 c0 -5 9 -10 21 -10 11 0 17 5 14 10 -3 6 -13 10 -21 10
-8 0 -14 -4 -14 -10z"/>
<path d="M1245 1760 c3 -5 11 -10 16 -10 6 0 7 5 4 10 -3 6 -11 10 -16 10 -6
0 -7 -4 -4 -10z"/>
<path d="M1320 1750 c-12 -8 -11 -10 8 -10 12 0 22 5 22 10 0 13 -11 13 -30 0z"/>
<path d="M1433 1753 c-7 -2 -13 -9 -13 -15 0 -12 41 -6 41 7 1 12 -11 15 -28
8z"/>
<path d="M1213 1734 c-7 -19 0 -26 21 -18 20 8 21 20 1 28 -9 3 -18 -1 -22
-10z"/>
<path d="M1455 1700 c-3 -5 -2 -10 4 -10 5 0 13 5 16 10 3 6 2 10 -4 10 -5 0
-13 -4 -16 -10z"/>
<path d="M1335 1691 c-3 -5 -1 -12 5 -16 12 -7 30 2 30 16 0 12 -27 12 -35 0z"/>
<path d="M1460 1676 l-25 -14 26 1 c14 1 26 8 26 15 0 6 -1 12 -1 12 -1 -1
-12 -7 -26 -14z"/>
<path d="M1155 1639 c-11 -17 0 -20 21 -4 17 13 17 14 2 15 -9 0 -20 -5 -23
-11z"/>
<path d="M1252 1633 c-6 -2 -10 -9 -6 -14 7 -12 46 -11 64 2 13 9 12 10 -2 5
-10 -3 -20 -1 -23 4 -7 11 -13 11 -33 3z"/>
<path d="M1080 1610 c0 -5 5 -10 10 -10 6 0 10 5 10 10 0 6 -4 10 -10 10 -5 0
-10 -4 -10 -10z"/>
<path d="M1138 1569 c-22 -12 -23 -29 -2 -29 18 0 46 25 37 34 -8 8 -15 7 -35
-5z"/>
<path d="M1229 1560 l-24 -21 33 16 c31 15 41 25 23 25 -5 0 -19 -9 -32 -20z"/>
<path d="M1180 1530 c-9 -6 -10 -10 -3 -10 6 0 15 5 18 10 8 12 4 12 -15 0z"/>
<path d="M1140 1500 c-9 -6 -10 -10 -3 -10 6 0 15 5 18 10 8 12 4 12 -15 0z"/>
<path d="M1175 1500 c-3 -6 1 -7 9 -4 18 7 21 14 7 14 -6 0 -13 -4 -16 -10z"/>
<path d="M3228 2288 c6 -6 18 -8 28 -6 14 3 12 5 -9 10 -19 3 -25 2 -19 -4z"/>
<path d="M3481 2151 c-7 -5 -9 -11 -5 -14 5 -3 15 1 22 9 14 16 5 18 -17 5z"/>
<path d="M3470 2091 c0 -10 30 -24 37 -17 3 2 -5 9 -16 16 -12 6 -21 7 -21 1z"/>
<path d="M487 1043 c-12 -11 -8 -23 8 -23 8 0 15 7 15 15 0 16 -12 20 -23 8z"/>
<path d="M436 951 c-4 -7 -5 -15 -2 -18 9 -9 19 4 14 18 -4 11 -6 11 -12 0z"/>
<path d="M517 954 c-4 -4 -7 -14 -7 -23 0 -11 3 -12 11 -4 6 6 10 16 7 23 -2
6 -7 8 -11 4z"/>
<path d="M542 909 c-1 -34 11 -29 23 9 4 15 2 22 -8 22 -9 0 -14 -11 -15 -31z"/>
<path d="M436 864 c-9 -22 3 -32 14 -14 12 19 12 30 1 30 -5 0 -12 -7 -15 -16z"/>
<path d="M390 849 c0 -11 5 -17 10 -14 6 3 10 13 10 21 0 8 -4 14 -10 14 -5 0
-10 -9 -10 -21z"/>
<path d="M470 781 c0 -11 5 -23 10 -26 6 -3 10 -2 10 4 0 5 3 16 6 25 4 11 1
16 -10 16 -9 0 -16 -8 -16 -19z"/>
<path d="M368 755 c-12 -22 -18 -65 -8 -65 5 0 12 11 16 25 6 26 1 55 -8 40z"/>
<path d="M778 5433 c6 -2 18 -2 25 0 6 3 1 5 -13 5 -14 0 -19 -2 -12 -5z"/>
<path d="M1237 5433 c-4 -3 -7 -37 -7 -75 0 -55 4 -72 20 -88 22 -22 38 -25
60 -9 12 9 11 10 -7 6 -42 -9 -54 12 -55 96 0 42 -1 77 -3 77 -1 0 -5 -3 -8
-7z"/>
<path d="M1347 5353 c2 -103 3 -106 13 -73 14 42 12 160 -2 160 -10 0 -13 -23
-11 -87z"/>
<path d="M1431 5351 c1 -50 5 -91 10 -91 13 0 11 167 -1 175 -7 4 -10 -24 -9
-84z"/>
<path d="M2001 5348 c-1 -56 2 -88 8 -88 7 0 11 30 11 79 0 73 2 79 23 85 49
13 66 7 75 -26 8 -28 11 -30 17 -14 5 11 3 21 -4 26 -7 4 -13 11 -14 16 -1 5
-27 9 -58 9 l-56 1 -2 -88z"/>
<path d="M2349 5423 c-11 -15 -11 -16 1 -5 27 24 90 4 90 -28 0 -5 -7 -16 -16
-24 -14 -15 -14 -16 3 -16 13 0 18 8 20 28 2 35 -23 62 -57 62 -15 0 -34 -8
-41 -17z"/>
<path d="M2680 5365 c0 -41 3 -75 8 -75 4 0 7 34 7 75 0 41 -3 75 -7 75 -5 0
-8 -34 -8 -75z"/>
<path d="M2776 5418 c-19 -27 -20 -47 -2 -70 23 -31 106 -19 106 16 0 5 -8 2
-18 -7 -27 -24 -69 -22 -77 4 -10 29 2 67 23 72 15 4 15 5 0 6 -9 0 -24 -9
-32 -21z"/>
<path d="M2848 5428 c12 -6 22 -17 22 -24 0 -7 5 -16 11 -20 8 -4 9 1 4 16 -5
15 -2 25 6 31 9 6 0 9 -26 8 -36 0 -38 -1 -17 -11z"/>
<path d="M2998 5433 c7 -3 16 -2 19 1 4 3 -2 6 -13 5 -11 0 -14 -3 -6 -6z"/>
<path d="M3045 5423 c11 -10 15 -27 13 -45 -3 -18 0 -28 8 -28 8 0 11 11 9 31
-5 33 -21 59 -37 59 -5 0 -2 -7 7 -17z"/>
<path d="M3145 5350 c0 -50 3 -90 8 -90 4 0 7 41 6 90 -1 50 -4 90 -8 90 -3 0
-6 -41 -6 -90z"/>
<path d="M3222 5433 c22 -3 29 -11 34 -39 3 -18 4 -49 2 -67 -2 -19 1 -34 7
-34 6 0 8 22 5 61 -3 34 -5 66 -5 71 0 6 -16 11 -35 11 -25 1 -28 1 -8 -3z"/>
<path d="M3561 5425 c2 -9 15 -25 29 -34 24 -15 25 -15 10 4 -8 11 -21 26 -29
34 -11 13 -13 12 -10 -4z"/>
<path d="M3948 5433 c6 -2 18 -2 25 0 6 3 1 5 -13 5 -14 0 -19 -2 -12 -5z"/>
<path d="M4224 5432 c-31 -20 -43 -86 -25 -135 13 -33 62 -52 98 -38 l28 11
-29 -4 c-17 -2 -40 0 -53 5 -28 11 -50 59 -32 70 10 6 10 11 0 23 -11 13 -9
20 9 46 22 31 23 35 4 22z"/>
<path d="M4277 5430 c23 -9 40 -51 28 -69 -3 -6 0 -11 8 -11 10 0 13 9 11 33
-4 33 -27 57 -53 56 -10 0 -8 -4 6 -9z"/>
<path d="M4390 5367 c0 -42 3 -77 8 -77 9 0 8 137 -1 147 -4 3 -7 -28 -7 -70z"/>
<path d="M4459 5433 c13 -3 26 -13 28 -24 6 -23 19 -25 27 -3 9 24 7 31 -4 14
-8 -13 -10 -12 -10 3 0 13 -8 17 -32 16 -26 -1 -28 -3 -9 -6z"/>
<path d="M4580 5427 c23 -12 25 -17 24 -90 0 -42 4 -77 8 -77 13 0 9 155 -4
168 -7 7 -21 12 -32 12 -19 0 -18 -2 4 -13z"/>
<path d="M4695 5427 c-29 -22 -13 -63 33 -85 50 -23 56 -58 12 -73 -17 -6 -29
-14 -26 -17 3 -2 19 1 36 8 25 10 30 18 30 46 0 30 -4 35 -29 40 -71 14 -77
73 -10 85 l34 6 -31 2 c-16 0 -38 -5 -49 -12z"/>
<path d="M727 5398 c-33 -72 14 -158 77 -142 29 7 66 56 66 87 0 25 -30 87
-41 87 -5 0 -2 -11 7 -25 8 -13 13 -28 10 -34 -3 -5 -2 -11 4 -13 17 -6 -11
-77 -34 -85 -27 -9 -58 -5 -73 11 -19 18 -19 91 1 120 9 14 12 26 7 26 -5 0
-16 -15 -24 -32z"/>
<path d="M1616 5414 c-9 -24 -2 -26 12 -4 7 11 8 20 3 20 -5 0 -12 -7 -15 -16z"/>
<path d="M2960 5410 c-18 -34 -16 -107 4 -129 21 -23 62 -32 90 -20 19 8 19 9
-4 8 -52 -2 -68 2 -75 19 -13 29 -15 105 -3 119 6 8 8 16 5 19 -3 3 -11 -4
-17 -16z"/>
<path d="M3914 5413 c-16 -25 8 -59 52 -73 26 -9 34 -17 34 -35 0 -30 -25 -45
-65 -39 l-30 4 28 -11 c22 -9 33 -8 53 6 38 24 29 61 -21 90 -32 18 -40 28
-38 49 2 31 1 31 -13 9z"/>
<path d="M3841 5399 c-7 -12 -10 -23 -8 -26 3 -3 11 5 17 17 15 28 8 35 -9 9z"/>
<path d="M1026 5399 c4 -7 6 -41 5 -76 l-2 -63 33 1 c30 2 31 2 6 6 -26 4 -28
8 -28 53 0 34 5 52 15 58 13 7 11 10 -10 20 -20 9 -24 9 -19 1z"/>
<path d="M2212 5390 c0 -14 2 -19 5 -12 2 6 2 18 0 25 -3 6 -5 1 -5 -13z"/>
<path d="M2321 5394 c0 -11 3 -14 6 -6 3 7 2 16 -1 19 -3 4 -6 -2 -5 -13z"/>
<path d="M3351 5348 c0 -38 2 -68 7 -68 4 0 6 21 4 48 -5 82 -9 89 -11 20z"/>
<path d="M3743 5394 c3 -11 8 -29 12 -41 7 -26 25 -31 25 -7 0 8 -4 12 -10 9
-6 -3 -10 5 -10 19 0 14 -5 28 -11 32 -7 4 -9 0 -6 -12z"/>
<path d="M3630 5386 c0 -3 11 -16 25 -30 27 -27 25 -45 -9 -86 l-21 -24 25 16
c39 24 48 62 24 95 -19 25 -44 42 -44 29z"/>
<path d="M1601 5338 c0 -30 4 -52 14 -62 17 -17 54 -30 62 -22 3 3 -6 8 -20
11 -26 7 -43 37 -50 90 -3 21 -4 15 -6 -17z"/>
<path d="M4080 5327 c0 -47 3 -55 25 -67 20 -11 28 -11 38 -1 9 10 9 12 -3 10
-35 -5 -48 11 -43 55 3 26 1 46 -6 50 -8 5 -11 -10 -11 -47z"/>
<path d="M4490 5338 c0 -49 5 -47 13 5 3 20 2 37 -4 37 -5 0 -9 -19 -9 -42z"/>
<path d="M1148 5357 c17 -20 7 -77 -14 -77 -8 0 -14 -4 -14 -10 0 -18 18 -11
38 15 22 28 17 75 -9 83 -12 5 -12 3 -1 -11z"/>
<path d="M1720 5330 c0 -22 4 -40 9 -40 6 0 9 18 9 40 0 22 -4 40 -9 40 -5 0
-9 -18 -9 -40z"/>
<path d="M2316 5331 c8 -44 12 -51 27 -51 8 0 7 3 -2 9 -9 6 -12 19 -7 43 5
27 3 35 -9 35 -12 0 -14 -8 -9 -36z"/>
<path d="M2123 5310 c0 -30 2 -43 4 -27 2 15 2 39 0 55 -2 15 -4 2 -4 -28z"/>
<path d="M2212 5330 c0 -19 2 -27 5 -17 2 9 2 25 0 35 -3 9 -5 1 -5 -18z"/>
<path d="M3018 5353 c7 -3 16 -2 19 1 4 3 -2 6 -13 5 -11 0 -14 -3 -6 -6z"/>
<path d="M5940 5321 c0 -12 29 -23 42 -15 6 4 5 10 -3 15 -18 11 -39 11 -39 0z"/>
<path d="M2764 5309 c-3 -6 1 -18 10 -27 10 -11 16 -12 16 -4 0 7 -4 12 -10
12 -5 0 -7 7 -4 15 7 17 -2 20 -12 4z"/>
<path d="M3810 5301 c-8 -6 -18 -8 -22 -5 -4 3 -5 -8 -2 -24 8 -37 -9 -69 -38
-75 -20 -4 -20 -4 4 -6 23 -1 29 5 44 47 10 26 22 53 27 60 11 14 7 15 -13 3z"/>
<path d="M5923 5293 c9 -9 19 -14 23 -11 10 10 -6 28 -24 28 -15 0 -15 -1 1
-17z"/>
<path d="M2220 5270 c11 -21 35 -27 45 -10 3 6 -1 7 -9 4 -9 -4 -18 1 -22 10
-3 9 -10 16 -15 16 -6 0 -5 -9 1 -20z"/>
<path d="M4497 5283 c-4 -3 -7 -11 -7 -17 0 -6 5 -5 12 2 6 6 9 14 7 17 -3 3
-9 2 -12 -2z"/>
<path d="M5895 5280 c3 -5 -1 -10 -9 -10 -21 0 -21 -16 0 -24 22 -8 26 -8 19
4 -3 6 1 10 9 10 21 0 21 16 0 24 -22 8 -26 8 -19 -4z"/>
<path d="M1710 5276 c0 -2 7 -6 15 -10 8 -3 15 -1 15 4 0 6 -7 10 -15 10 -8 0
-15 -2 -15 -4z"/>
<path d="M1910 5270 c0 -5 5 -10 10 -10 6 0 10 5 10 10 0 6 -4 10 -10 10 -5 0
-10 -4 -10 -10z"/>
<path d="M2680 5270 c0 -5 5 -10 10 -10 6 0 10 5 10 10 0 6 -4 10 -10 10 -5 0
-10 -4 -10 -10z"/>
<path d="M2865 5270 c3 -5 10 -10 16 -10 5 0 9 5 9 10 0 6 -7 10 -16 10 -8 0
-12 -4 -9 -10z"/>
<path d="M3255 5270 c4 -6 11 -8 16 -5 14 9 11 15 -7 15 -8 0 -12 -5 -9 -10z"/>
<path d="M4390 5270 c0 -5 5 -10 10 -10 6 0 10 5 10 10 0 6 -4 10 -10 10 -5 0
-10 -4 -10 -10z"/>
<path d="M2350 5266 c0 -2 7 -7 16 -10 8 -3 12 -2 9 4 -6 10 -25 14 -25 6z"/>
<path d="M2403 5263 c9 -2 23 -2 30 0 6 3 -1 5 -18 5 -16 0 -22 -2 -12 -5z"/>
<path d="M3365 5260 c7 -12 32 -13 39 -2 2 4 -7 9 -20 10 -15 1 -22 -2 -19 -8z"/>
<path d="M3598 5263 c7 -3 16 -2 19 1 4 3 -2 6 -13 5 -11 0 -14 -3 -6 -6z"/>
<path d="M2886 5237 c6 -17 -13 -34 -46 -40 l-25 -4 27 -2 c15 0 34 6 42 15
18 17 21 44 6 44 -5 0 -7 -6 -4 -13z"/>
<path d="M5840 5240 c0 -5 5 -10 10 -10 6 0 10 5 10 10 0 6 -4 10 -10 10 -5 0
-10 -4 -10 -10z"/>
<path d="M2759 5218 c5 -13 17 -24 27 -26 18 -3 18 -2 2 8 -10 6 -18 18 -18
25 0 8 -4 15 -10 15 -6 0 -6 -9 -1 -22z"/>
<path d="M5818 5213 c7 -3 16 -2 19 1 4 3 -2 6 -13 5 -11 0 -14 -3 -6 -6z"/>
<path d="M5577 5014 c-10 -11 -9 -26 2 -20 5 4 11 0 14 -6 4 -10 7 -11 18 0
11 10 10 12 -3 12 -9 0 -18 5 -20 11 -2 5 -7 7 -11 3z"/>
<path d="M1279 4923 c-5 -82 -4 -103 3 -103 4 0 8 27 8 60 0 33 -2 60 -5 60
-3 0 -5 -8 -6 -17z"/>
<path d="M1360 4924 c0 -10 5 -26 10 -34 8 -11 9 -7 4 15 -8 37 -14 45 -14 19z"/>
<path d="M593 4839 c-1 -33 1 -58 4 -56 8 8 12 107 4 111 -4 3 -8 -22 -8 -55z"/>
<path d="M654 4884 c21 -20 20 -30 -4 -54 -11 -11 -16 -20 -10 -20 5 0 17 11
25 24 13 19 14 29 5 45 -6 12 -15 21 -21 21 -6 0 -3 -7 5 -16z"/>
<path d="M706 4884 c-8 -22 -8 -52 2 -57 4 -3 7 13 7 34 1 43 0 46 -9 23z"/>
<path d="M860 4895 c0 -5 5 -17 10 -25 5 -8 10 -10 10 -5 0 6 -5 17 -10 25 -5
8 -10 11 -10 5z"/>
<path d="M1004 4879 c0 -10 4 -19 8 -19 4 0 8 6 8 14 0 8 -4 17 -8 20 -4 2 -8
-4 -8 -15z"/>
<path d="M1051 4855 c2 -33 3 -35 6 -10 2 17 11 35 20 42 13 10 13 12 -6 10
-18 -1 -21 -7 -20 -42z"/>
<path d="M1211 4878 c-5 -13 -5 -31 1 -40 13 -26 15 -22 10 13 -3 20 0 34 9
40 11 7 11 9 1 9 -7 0 -16 -10 -21 -22z"/>
<path d="M1430 4881 c5 -11 7 -28 4 -38 -5 -17 -5 -17 6 -1 8 13 8 23 0 38 -6
11 -13 20 -16 20 -2 0 0 -9 6 -19z"/>
<path d="M1519 4873 c-6 -15 -16 -31 -22 -35 -8 -5 -9 -10 -2 -17 8 -8 16 3
27 34 10 25 15 45 12 45 -2 0 -9 -12 -15 -27z"/>
<path d="M911 4874 c0 -11 3 -14 6 -6 3 7 2 16 -1 19 -3 4 -6 -2 -5 -13z"/>
<path d="M950 4861 c0 -17 4 -32 8 -35 4 -2 6 11 4 30 -5 42 -12 45 -12 5z"/>
<path d="M1117 4883 c-9 -9 -9 -51 1 -56 4 -3 7 10 7 29 0 19 0 34 -1 34 0 0
-4 -3 -7 -7z"/>
<path d="M772 4860 c0 -14 2 -19 5 -12 2 6 2 18 0 25 -3 6 -5 1 -5 -13z"/>
<path d="M1361 4860 c0 -8 4 -22 9 -30 12 -18 12 -2 0 25 -6 13 -9 15 -9 5z"/>
<path d="M820 4841 c0 -6 4 -13 10 -16 6 -3 7 1 4 9 -7 18 -14 21 -14 7z"/>
<path d="M896 4833 c-6 -14 -5 -15 5 -6 7 7 10 15 7 18 -3 3 -9 -2 -12 -12z"/>
<path d="M6511 4774 c0 -11 3 -14 6 -6 3 7 2 16 -1 19 -3 4 -6 -2 -5 -13z"/>
<path d="M1284 4680 c-42 -16 -37 -71 7 -85 26 -9 61 21 57 48 -4 28 -38 47
-64 37z"/>
<path d="M5454 4663 c4 -22 14 -25 24 -6 8 15 7 19 -8 19 -9 0 -17 -6 -16 -13z"/>
<path d="M5410 4619 c0 -5 5 -7 10 -4 6 3 10 8 10 11 0 2 -4 4 -10 4 -5 0 -10
-5 -10 -11z"/>
<path d="M987 4609 c-74 -17 -152 -71 -196 -136 -26 -38 -27 -52 -3 -30 32 30
126 66 199 77 101 16 204 0 294 -45 l69 -35 -14 28 c-32 60 -109 115 -193 137
-63 17 -99 17 -156 4z"/>
<path d="M6445 4610 c-3 -5 -1 -10 4 -10 6 0 11 5 11 10 0 6 -2 10 -4 10 -3 0
-8 -4 -11 -10z"/>
<path d="M740 4591 c-7 -15 -6 -24 6 -36 19 -18 33 -16 48 7 7 12 6 21 -3 32
-18 22 -38 20 -51 -3z"/>
<path d="M6380 4511 c0 -6 4 -13 10 -16 6 -3 7 1 4 9 -7 18 -14 21 -14 7z"/>
<path d="M1173 4364 c-7 -12 -8 -26 -3 -34 5 -8 6 -18 3 -23 -10 -17 7 -57 25
-56 10 0 12 3 5 6 -21 8 -16 81 5 86 15 4 15 5 0 6 -9 0 -18 9 -20 19 -3 15
-5 15 -15 -4z"/>
<path d="M740 4285 c0 -37 -4 -65 -10 -65 -5 0 -10 -6 -10 -12 1 -7 10 -2 20
11 15 17 20 38 20 77 0 30 -4 54 -10 54 -6 0 -10 -28 -10 -65z"/>
<path d="M804 4305 l1 -50 38 -1 37 -1 -1 51 c-1 28 -3 40 -6 26 -10 -65 -13
-71 -36 -68 -18 2 -23 12 -28 48 l-7 45 2 -50z"/>
<path d="M940 4342 c-11 -5 -15 -23 -15 -69 0 -34 4 -65 8 -69 4 -4 7 5 7 19
0 23 4 27 28 27 35 0 52 16 52 50 0 43 -36 62 -80 42z m60 -17 c7 -9 10 -25 6
-41 -5 -20 -12 -25 -34 -22 -19 2 -28 9 -30 26 -6 43 33 68 58 37z"/>
<path d="M1051 4345 c-1 -5 7 -32 16 -58 17 -46 17 -50 0 -62 -9 -7 -17 -16
-17 -20 0 -5 9 0 19 9 23 21 64 112 58 129 -2 7 -10 -5 -17 -25 -8 -21 -17
-38 -21 -38 -3 0 -13 17 -22 38 -8 20 -16 33 -16 27z"/>
<path d="M1256 4334 c-30 -30 -9 -95 26 -81 9 4 7 6 -3 6 -18 1 -32 25 -22 35
4 3 21 6 40 6 36 0 38 2 23 31 -13 23 -43 25 -64 3z m54 -9 c0 -9 -9 -15 -25
-15 -24 0 -32 10 -18 23 12 13 43 7 43 -8z"/>
<path d="M1378 4343 c-14 -3 -18 -15 -18 -49 0 -24 5 -44 10 -44 6 0 10 18 10
40 0 27 6 42 18 49 18 11 10 12 -20 4z"/>
<path d="M770 4162 c0 -4 11 -24 25 -44 51 -75 172 -138 265 -138 49 0 134 26
180 55 36 22 110 101 110 116 0 4 -24 -6 -54 -22 -60 -33 -165 -59 -237 -59
-68 0 -195 36 -245 69 -24 17 -44 27 -44 23z"/>
<path d="M5977 4119 c7 -7 15 -10 18 -7 3 3 -2 9 -12 12 -14 6 -15 5 -6 -5z"/>
<path d="M5935 4050 c-3 -5 -1 -10 4 -10 6 0 11 5 11 10 0 6 -2 10 -4 10 -3 0
-8 -4 -11 -10z"/>
<path d="M789 3986 c-51 -25 -27 -106 32 -106 49 0 77 62 42 92 -28 23 -48 27
-74 14z"/>
<path d="M3746 3775 c4 -8 10 -12 15 -9 11 6 2 24 -11 24 -5 0 -7 -7 -4 -15z"/>
<path d="M3697 3764 c-4 -4 -7 -14 -7 -23 0 -11 3 -12 11 -4 6 6 10 16 7 23
-2 6 -7 8 -11 4z"/>
<path d="M3305 3530 c-3 -5 -1 -10 4 -10 6 0 11 5 11 10 0 6 -2 10 -4 10 -3 0
-8 -4 -11 -10z"/>
<path d="M5675 3510 c-3 -5 -1 -10 4 -10 6 0 11 5 11 10 0 6 -2 10 -4 10 -3 0
-8 -4 -11 -10z"/>
<path d="M3220 3475 c-10 -12 -10 -15 4 -15 9 0 16 7 16 15 0 8 -2 15 -4 15
-2 0 -9 -7 -16 -15z"/>
<path d="M5622 3410 c0 -14 2 -19 5 -12 2 6 2 18 0 25 -3 6 -5 1 -5 -13z"/>
<path d="M5602 3320 c-7 -11 -8 -20 -3 -20 9 0 24 30 18 36 -1 2 -8 -6 -15
-16z"/>
<path d="M5555 3230 c-3 -5 -2 -18 4 -27 7 -14 9 -12 8 10 -2 30 -3 31 -12 17z"/>
<path d="M5073 3055 c-19 -21 -16 -27 7 -13 11 7 20 16 20 20 0 12 -14 9 -27
-7z"/>
<path d="M3835 2400 c-3 -5 -1 -10 4 -10 6 0 11 5 11 10 0 6 -2 10 -4 10 -3 0
-8 -4 -11 -10z"/>
<path d="M3656 1853 c-6 -14 -5 -15 5 -6 7 7 10 15 7 18 -3 3 -9 -2 -12 -12z"/>
<path d="M916 943 c-4 -9 -3 -20 1 -24 4 -4 9 3 9 17 2 28 -1 31 -10 7z"/>
<path d="M5930 675 c0 -104 2 -125 15 -125 13 0 15 21 15 125 0 104 -2 125
-15 125 -13 0 -15 -21 -15 -125z"/>
<path d="M6651 782 c-48 -24 -72 -60 -73 -111 -1 -117 145 -172 222 -84 19 21
30 44 28 56 -3 20 -9 22 -60 22 -66 0 -80 -18 -18 -23 45 -4 51 -19 19 -48
-15 -13 -35 -19 -67 -18 -58 1 -92 36 -92 92 0 48 21 77 65 92 31 10 41 9 81
-10 25 -12 48 -20 51 -16 16 16 -62 66 -104 66 -10 0 -33 -8 -52 -18z"/>
<path d="M5255 778 c-6 -17 -71 -189 -80 -210 -12 -29 24 -22 37 7 10 22 17
25 69 25 54 0 59 -2 65 -25 4 -16 13 -25 25 -25 18 0 18 2 -2 53 -12 28 -32
82 -46 120 -19 51 -30 67 -44 67 -11 0 -22 -6 -24 -12z m48 -85 c9 -27 17 -51
17 -55 0 -5 -18 -8 -40 -8 -22 0 -40 4 -40 8 0 18 32 102 39 102 4 0 15 -21
24 -47z"/>
<path d="M5800 770 c-8 -15 -8 -20 3 -20 14 0 37 19 37 32 0 16 -30 7 -40 -12z"/>
<path d="M6010 775 c0 -8 7 -15 15 -15 8 0 15 7 15 15 0 8 -7 15 -15 15 -8 0
-15 -7 -15 -15z"/>
<path d="M6940 770 c-8 -15 -8 -20 3 -20 14 0 37 19 37 32 0 16 -30 7 -40 -12z"/>
<path d="M785 760 c-3 -5 -2 -10 4 -10 5 0 13 5 16 10 3 6 2 10 -4 10 -5 0
-13 -4 -16 -10z"/>
<path d="M5774 720 c-32 -13 -54 -50 -54 -91 0 -52 48 -94 99 -85 33 5 70 30
60 41 -3 2 -19 -1 -36 -7 -35 -13 -93 4 -93 28 0 11 17 14 69 14 39 0 72 4 75
9 13 21 -17 73 -50 87 -38 16 -41 16 -70 4z m67 -30 c10 -6 19 -17 19 -25 0
-11 -13 -15 -55 -15 -59 0 -64 4 -38 32 18 20 45 23 74 8z"/>
<path d="M6134 720 c-76 -30 -67 -155 12 -174 33 -9 94 11 94 30 0 16 -26 19
-35 4 -14 -23 -95 3 -95 31 0 5 34 9 75 9 81 0 85 3 65 55 -6 15 -24 32 -45
40 -39 17 -42 17 -71 5z m79 -42 l22 -23 -59 -3 c-69 -4 -79 3 -47 29 31 25
56 24 84 -3z"/>
<path d="M6360 721 c-8 -6 -25 -8 -37 -4 -23 5 -23 3 -23 -81 0 -70 3 -86 15
-86 12 0 15 14 15 65 0 61 2 66 26 77 38 18 58 0 62 -53 3 -60 11 -89 22 -89
15 0 12 133 -2 153 -16 20 -59 30 -78 18z"/>
<path d="M6915 721 c-94 -39 -66 -176 35 -176 24 0 46 7 57 17 21 22 9 36 -17
20 -28 -17 -64 -15 -83 6 -10 10 -17 22 -17 25 0 4 32 7 70 7 70 0 70 0 70 28
-1 34 -19 58 -54 72 -31 12 -34 12 -61 1z m66 -31 c10 -6 19 -17 19 -25 0 -11
-13 -15 -55 -15 -59 0 -68 10 -33 34 26 19 42 20 69 6z"/>
<path d="M7235 721 c-64 -27 -78 -107 -26 -153 35 -32 59 -35 101 -13 71 37
68 130 -5 161 -39 16 -42 16 -70 5z m83 -48 c45 -60 -43 -139 -93 -83 -25 27
-22 70 6 93 26 21 66 16 87 -10z"/>
<path d="M7465 720 c-11 -4 -30 -6 -42 -3 -22 5 -23 3 -23 -81 0 -70 3 -86 15
-86 12 0 15 13 15 59 0 63 15 91 50 91 30 0 50 -39 50 -97 0 -42 3 -53 16 -53
14 0 16 10 12 71 -3 41 -11 76 -19 84 -20 18 -51 25 -74 15z"/>
<path d="M5410 651 c0 -64 2 -71 27 -91 20 -15 35 -20 53 -15 14 4 37 7 53 6
l27 0 0 84 c0 69 -3 85 -15 85 -11 0 -15 -13 -15 -53 0 -60 -20 -97 -54 -97
-36 0 -46 19 -46 87 0 49 -3 63 -15 63 -12 0 -15 -14 -15 -69z"/>
<path d="M5610 635 c0 -69 3 -85 15 -85 11 0 15 12 15 49 0 63 7 80 36 92 13
4 24 13 24 19 0 14 -33 13 -48 -2 -9 -9 -12 -9 -12 0 0 7 -7 12 -15 12 -12 0
-15 -16 -15 -85z"/>
<path d="M6010 635 c0 -69 3 -85 15 -85 12 0 15 16 15 85 0 69 -3 85 -15 85
-12 0 -15 -16 -15 -85z"/>
<path d="M7080 645 c0 -41 0 -78 0 -82 0 -5 5 -8 11 -8 6 0 12 22 13 51 1 52
17 84 42 84 8 0 14 7 14 15 0 17 -21 20 -37 4 -8 -8 -13 -8 -17 0 -17 27 -26
5 -26 -64z"/>
<path d="M672 500 c0 -19 2 -27 5 -17 2 9 2 25 0 35 -3 9 -5 1 -5 -18z"/>
<path d="M760 35 c0 -8 5 -15 10 -15 6 0 10 7 10 15 0 8 -4 15 -10 15 -5 0
-10 -7 -10 -15z"/>
</g>
</svg>
