<?xml version="1.0" standalone="no"?>
<!DOCTYPE svg PUBLIC "-//W3C//DTD SVG 20010904//EN"
        "http://www.w3.org/TR/2001/REC-SVG-20010904/DTD/svg10.dtd">
<svg version="1.0" xmlns="http://www.w3.org/2000/svg"
     width="1em" height="1em" viewBox="0 0 878.000000 472.000000"
     preserveAspectRatio="xMidYMid meet">

    <g transform="translate(0.000000,472.000000) scale(0.100000,-0.100000)"
       fill="#000000" stroke="none">
        <path d="M3790 4276 c-305 -106 -969 -335 -1475 -510 l-920 -317 3 -135 3
-134 1137 0 c1107 -1 1136 -1 1085 -19 -216 -74 -281 -321 -128 -489 57 -64
114 -87 215 -87 76 0 91 4 139 30 122 67 184 210 147 337 -29 99 -101 176
-199 209 -52 18 -49 18 333 19 212 0 490 -3 619 -7 230 -6 233 -7 185 -22 -34
-11 -66 -32 -105 -71 -85 -84 -106 -169 -74 -294 59 -226 367 -289 515 -105
57 71 83 184 61 266 -25 90 -120 189 -205 211 -37 10 326 22 657 22 l217 0 0
-40 c0 -31 4 -40 17 -40 14 0 14 -2 -3 -21 -19 -21 -18 -21 4 -39 12 -10 22
-25 22 -33 0 -8 7 -21 16 -28 12 -10 15 -24 11 -53 -3 -22 -11 -42 -16 -44
-15 -5 -14 -42 2 -42 7 0 19 -21 27 -47 11 -39 14 -183 17 -755 2 -457 7 -708
13 -708 7 0 10 238 10 675 0 427 4 675 10 675 28 0 30 -56 30 -689 0 -603 3
-684 24 -660 12 13 16 185 16 701 0 518 2 587 15 582 13 -5 15 -85 15 -634 0
-555 2 -629 16 -640 12 -11 18 -10 32 3 10 11 12 17 4 17 -9 0 -12 123 -12
540 0 353 3 540 10 540 6 0 10 30 10 70 0 69 3 76 34 64 12 -5 16 -21 16 -70
l0 -64 35 0 35 0 0 69 c0 65 1 69 25 73 25 5 25 5 25 -68 0 -59 3 -74 15 -74
13 0 15 -67 15 -540 0 -503 -1 -540 -17 -540 -16 0 -16 -1 0 -17 41 -41 42
-25 47 644 4 485 8 637 17 640 9 3 13 -142 15 -640 2 -355 6 -648 10 -652 26
-26 28 31 28 673 0 649 1 668 20 697 l20 30 0 -702 c0 -462 3 -703 10 -703 7
0 10 244 10 711 0 404 -4 708 -9 705 -5 -3 -3 11 5 32 19 53 17 134 -5 192
-11 27 -15 48 -11 45 14 -9 40 -97 40 -137 0 -31 3 -38 20 -38 24 0 26 25 5
46 -19 20 -19 78 0 94 8 7 15 19 15 27 0 8 10 23 22 33 22 18 23 18 4 39 -17
19 -17 21 -3 21 13 0 17 9 17 40 l0 40 300 0 300 0 0 135 c0 74 -2 135 -4 135
-2 0 -669 230 -1481 510 -813 281 -1487 510 -1499 509 -11 0 -271 -87 -576
-193z m92 -448 c-4 -26 -2 -30 11 -25 9 3 19 2 22 -3 4 -6 -3 -10 -14 -10 -27
0 -27 -14 2 -33 12 -8 18 -18 13 -23 -5 -5 -11 -4 -13 4 -11 31 -23 7 -23 -49
0 -37 -4 -58 -10 -54 -5 3 -10 24 -10 47 l0 40 -20 -23 -20 -24 20 45 c24 56
25 70 3 71 -17 1 -17 2 0 6 11 3 17 14 17 34 0 17 5 29 13 29 9 0 12 -10 9
-32z m601 -4 c-16 -26 -16 -26 12 -22 43 5 40 -14 -10 -47 -24 -16 -45 -33
-45 -37 0 -12 58 -9 65 2 7 12 25 4 25 -11 0 -5 -20 -9 -45 -9 -41 0 -45 -2
-45 -24 0 -30 -14 -40 -37 -27 -17 10 -17 10 0 11 10 0 17 8 17 20 0 17 -7 20
-52 22 l-53 2 49 3 c30 3 56 12 69 24 21 19 21 19 -28 19 -68 0 -53 7 24 12
39 2 66 9 69 16 3 9 -17 12 -72 12 -61 0 -76 -3 -76 -15 0 -8 -7 -15 -15 -15
-12 0 -13 5 -4 24 7 14 17 22 25 19 17 -6 18 2 3 29 -9 16 -8 19 3 16 7 -2 17
-14 23 -26 15 -33 37 -28 29 6 -7 25 -6 26 10 13 9 -8 15 -20 12 -28 -3 -7 0
-13 7 -13 7 0 18 14 24 31 7 17 17 28 22 24 7 -4 5 -15 -6 -31z m-313 -5 c0
-15 5 -31 10 -34 6 -4 8 -11 5 -16 -4 -5 3 -9 14 -9 12 0 21 5 21 10 0 6 -7
10 -15 10 -10 0 -15 10 -15 33 0 31 2 33 35 33 34 0 36 -2 33 -30 -2 -18 -8
-30 -15 -29 -7 2 -10 -3 -7 -11 3 -8 14 -12 25 -9 10 3 19 0 19 -6 0 -6 -14
-11 -31 -11 -38 0 -30 -16 13 -25 28 -7 30 -9 15 -20 -9 -7 -17 -22 -17 -34 0
-18 -4 -20 -26 -15 -17 4 -29 2 -35 -7 -6 -9 -9 0 -9 28 0 38 2 41 23 35 22
-5 22 -5 3 16 -24 28 -48 28 -72 1 -19 -21 -19 -22 4 -15 20 7 22 4 22 -29 0
-32 -2 -36 -20 -30 -12 4 -27 1 -35 -5 -13 -10 -15 -7 -15 19 0 23 -5 31 -17
31 -12 0 -7 6 12 16 49 25 52 34 15 35 l-35 2 38 6 c41 7 51 27 11 24 -21 -2
-24 2 -24 30 0 30 3 32 35 33 32 0 35 -2 35 -27z m-169 -60 c-3 -86 10 -124
28 -78 5 13 10 19 10 12 1 -6 4 -18 7 -27 5 -12 -1 -16 -25 -16 l-30 0 -3 87
c-3 74 -6 88 -20 91 -15 3 -18 -4 -18 -48 0 -57 -18 -107 -45 -130 -18 -15
-18 -14 0 13 12 18 20 54 23 103 l5 74 36 0 36 0 -4 -81z m749 -8 c0 -102 -12
-125 -52 -97 l-22 16 27 0 27 0 0 81 0 81 -69 -3 c-39 -2 -73 0 -77 4 -4 4 32
7 79 7 l87 0 0 -89z m-80 17 c0 -25 -5 -23 -30 12 l-22 30 26 -11 c14 -7 26
-20 26 -31z m-14 -58 c-77 -45 -76 -45 -76 -27 0 8 28 25 63 39 88 37 92 34
13 -12z m-838 -584 c25 -13 32 -23 32 -46 0 -27 3 -30 34 -30 26 0 39 -7 54
-27 42 -61 54 -149 30 -228 l-12 -40 -6 45 -5 45 -47 3 -48 3 0 -50 0 -51 51
0 c51 0 51 0 37 -22 -10 -16 -27 -24 -52 -26 -33 -3 -36 -6 -36 -33 0 -25 -6
-33 -37 -46 -58 -25 -158 -22 -217 6 -98 48 -147 123 -154 234 -3 52 -1 67 9
67 18 0 52 -45 56 -73 2 -12 8 -24 15 -28 6 -4 7 -12 2 -20 -6 -12 -5 -12 9 0
15 12 17 11 17 -14 0 -20 4 -26 14 -22 10 4 13 1 10 -8 -3 -7 4 -18 15 -25 12
-6 21 -7 21 -3 0 4 7 -2 15 -13 13 -16 14 -16 9 -1 -3 9 -2 17 2 17 5 0 20 3
33 7 21 5 22 3 16 -17 -6 -20 -5 -21 7 -10 11 11 12 19 4 37 -6 12 -13 18 -14
12 -3 -6 -9 -6 -18 2 -23 19 -16 25 24 22 20 -2 31 0 25 3 -18 8 -16 34 1 34
8 0 18 4 21 10 3 5 0 7 -8 4 -8 -3 -18 -1 -21 5 -4 6 -14 7 -23 4 -11 -4 -14
-3 -9 6 5 7 14 10 22 7 7 -3 16 -1 20 5 4 6 11 6 20 -2 8 -6 17 -9 21 -5 3 3
1 6 -6 6 -7 0 -9 5 -5 13 4 6 4 9 -1 5 -4 -4 -16 2 -27 14 -10 12 -15 24 -10
27 15 11 7 36 -11 33 -24 -4 -21 15 3 21 28 7 15 35 -18 39 l-27 3 23 23 c21
21 21 22 3 22 -11 0 -23 5 -26 10 -3 6 -17 10 -31 10 -13 0 -24 5 -24 11 0 5
-4 7 -10 4 -5 -3 -10 -1 -10 4 0 14 6 14 31 1 13 -7 19 -7 19 0 0 5 -5 10 -12
10 -17 0 2 17 27 23 37 10 140 0 173 -17z m1327 -5 c56 -25 101 -66 133 -120
24 -40 27 -56 27 -131 0 -75 -3 -91 -27 -131 -92 -156 -299 -188 -426 -66 -78
75 -105 205 -62 305 25 58 82 115 144 143 55 25 157 25 211 0z m1330 -5 c123
-57 185 -188 149 -315 -43 -156 -215 -242 -361 -183 -64 26 -128 92 -142 146
-6 24 -15 47 -20 51 -10 6 -7 48 11 127 33 155 216 243 363 174z m-2770 -124
c-3 -3 -11 0 -18 7 -9 10 -8 11 6 5 10 -3 15 -9 12 -12z m225 -172 c0 -5 -6
-7 -14 -4 -9 3 -17 -3 -21 -16 -9 -29 -1 -35 19 -15 9 9 16 13 16 8 0 -13 -22
-33 -37 -33 -17 0 -17 57 0 63 21 9 37 8 37 -3z"/>
        <path d="M4120 3815 c0 -8 7 -15 15 -15 8 0 15 7 15 15 0 8 -7 15 -15 15 -8 0
-15 -7 -15 -15z"/>
        <path d="M4210 3815 c0 -8 7 -15 15 -15 8 0 15 7 15 15 0 8 -7 15 -15 15 -8 0
-15 -7 -15 -15z"/>
        <path d="M4120 3685 c0 -8 7 -15 15 -15 8 0 15 7 15 15 0 8 -7 15 -15 15 -8 0
-15 -7 -15 -15z"/>
        <path d="M4200 3685 c0 -8 9 -15 20 -15 11 0 20 7 20 15 0 8 -9 15 -20 15 -11
0 -20 -7 -20 -15z"/>
        <path d="M3850 2950 l0 -50 50 0 50 0 0 50 0 50 -50 0 -50 0 0 -50z m80 10 c0
-4 -9 -6 -20 -3 -24 6 -40 -25 -19 -38 9 -6 10 -9 2 -9 -17 0 -25 17 -18 39 8
27 55 36 55 11z"/>
        <path d="M5086 3051 c-4 -5 3 -7 14 -4 23 6 26 13 6 13 -8 0 -17 -4 -20 -9z"/>
        <path d="M5172 3044 c26 -14 58 -60 58 -83 0 -12 -27 -10 -47 2 -7 5 -13 13
-13 19 0 6 7 5 18 -3 14 -11 13 -10 -2 9 -11 12 -23 22 -27 22 -9 0 -5 -42 5
-58 4 -7 1 -12 -8 -12 -10 0 -16 9 -16 25 0 14 -8 29 -21 35 -25 14 -40 3 -19
-13 18 -14 25 -63 10 -72 -6 -4 -7 1 -3 11 5 13 3 16 -10 11 -9 -3 -19 -2 -23
4 -4 6 -12 5 -22 -3 -14 -11 -15 -10 -9 5 4 12 3 17 -4 15 -6 -2 -9 -6 -7 -10
2 -3 -5 -15 -15 -25 -9 -11 -14 -23 -10 -26 3 -4 1 -7 -6 -7 -7 0 -9 10 -5 28
4 21 3 24 -5 12 -7 -10 -11 -11 -11 -2 0 6 -12 12 -28 12 -15 0 -42 4 -60 9
-40 12 -59 6 -67 -20 -4 -10 -13 -19 -21 -19 -20 0 -18 -13 6 -33 11 -9 20
-23 20 -31 0 -8 11 -17 24 -20 13 -3 26 -15 29 -26 3 -13 11 -18 20 -14 8 3
24 -5 36 -17 12 -13 21 -19 21 -13 1 5 7 -2 15 -16 11 -19 14 -21 15 -7 0 9 5
17 10 17 6 0 9 -4 8 -9 -5 -15 61 -71 84 -71 21 0 21 0 2 15 -10 8 -15 15 -10
15 5 0 1 9 -9 20 -10 11 -16 20 -14 21 25 5 59 3 59 -3 0 -4 -8 -8 -17 -8 -16
0 -16 -1 -1 -16 14 -15 17 -14 36 1 11 10 18 25 15 36 -6 23 12 25 21 3 5 -13
9 -14 20 -5 13 11 32 75 28 94 -1 4 3 7 8 7 6 0 11 -12 11 -27 1 -17 3 -21 6
-10 2 9 9 17 15 17 7 0 7 5 1 13 -5 6 -10 34 -11 61 -4 74 -56 157 -97 156 -5
-1 2 -7 17 -16z m-92 -152 c0 -15 -2 -15 -10 -2 -13 20 -13 33 0 25 6 -3 10
-14 10 -23z m-132 -4 c19 -19 14 -46 -8 -53 -25 -8 -50 10 -50 35 0 28 37 39
58 18z m102 -8 c0 -5 -2 -10 -4 -10 -3 0 -8 5 -11 10 -3 6 -1 10 4 10 6 0 11
-4 11 -10z m170 -6 c0 -8 -4 -12 -10 -9 -5 3 -10 10 -10 16 0 5 5 9 10 9 6 0
10 -7 10 -16z m-85 -5 c4 -5 4 -21 1 -35 -8 -30 -42 -32 -51 -4 -11 35 33 68
50 39z m-68 -21 c-3 -8 -6 -5 -6 6 -1 11 2 17 5 13 3 -3 4 -12 1 -19z m68 -68
c-10 -11 -23 -20 -29 -20 -6 0 0 9 14 20 32 25 38 25 15 0z m-63 -82 c-13 -13
-32 -2 -32 18 0 12 4 13 21 3 14 -7 18 -14 11 -21z"/>
        <path d="M5044 3018 l-19 -23 23 19 c12 11 22 21 22 23 0 8 -8 2 -26 -19z"/>
        <path d="M5059 2983 c-13 -16 -12 -17 4 -4 9 7 17 15 17 17 0 8 -8 3 -21 -13z"/>
        <path d="M4790 2929 c0 -5 5 -7 10 -4 6 3 10 8 10 11 0 2 -4 4 -10 4 -5 0 -10
-5 -10 -11z"/>
        <path d="M5218 2751 c-9 -22 -15 -41 -12 -41 8 0 35 62 32 72 -2 6 -11 -8 -20
-31z"/>
        <path d="M5000 2680 c20 -29 49 -50 67 -50 4 0 -6 9 -24 19 -17 11 -34 29 -38
40 -3 12 -11 21 -16 21 -6 0 -1 -14 11 -30z"/>
        <path d="M5164 2668 l-29 -33 33 29 c17 17 32 31 32 33 0 8 -8 1 -36 -29z"/>
        <path d="M6256 2873 c-6 -14 -5 -15 5 -6 7 7 10 15 7 18 -3 3 -9 -2 -12 -12z"/>
        <path d="M6215 2820 c-3 -5 -1 -10 4 -10 6 0 11 5 11 10 0 6 -2 10 -4 10 -3 0
-8 -4 -11 -10z"/>
        <path d="M2300 3157 c-217 -61 -291 -336 -133 -494 63 -63 124 -88 213 -87 91
1 134 18 200 80 152 142 116 384 -72 480 -58 30 -146 39 -208 21z m213 -50
c81 -48 137 -139 137 -224 0 -36 -10 -42 -31 -17 -32 39 -195 102 -183 71 2
-7 -3 -14 -13 -15 -45 -4 -62 -10 -98 -33 -52 -32 -113 -50 -134 -39 -9 5 -25
11 -36 15 -15 5 -16 8 -6 14 10 7 10 9 -2 14 -8 3 -17 19 -20 37 -12 60 54
149 143 190 65 30 179 24 243 -13z m48 -229 c34 -24 67 -50 72 -59 24 -39 -37
-134 -117 -184 -68 -41 -168 -47 -245 -15 -62 27 -132 101 -149 158 -15 49
-16 116 -2 107 6 -4 8 -10 5 -15 -8 -13 83 -40 118 -34 18 3 55 18 82 32 40
21 118 45 167 51 3 1 34 -18 69 -41z"/>
        <path d="M6062 2580 c0 -14 2 -19 5 -12 2 6 2 18 0 25 -3 6 -5 1 -5 -13z"/>
        <path d="M6681 2564 c0 -11 3 -14 6 -6 3 7 2 16 -1 19 -3 4 -6 -2 -5 -13z"/>
        <path d="M6061 2494 c0 -11 3 -14 6 -6 3 7 2 16 -1 19 -3 4 -6 -2 -5 -13z"/>
        <path d="M6065 2070 c0 -217 1 -306 2 -197 2 108 2 286 0 395 -1 108 -2 19 -2
-198z"/>
        <path d="M6685 2070 c0 -195 1 -275 2 -178 2 98 2 258 0 355 -1 98 -2 18 -2
-177z"/>
        <path d="M4978 2093 c23 -2 59 -2 80 0 20 2 1 4 -43 4 -44 0 -61 -2 -37 -4z"/>
        <path d="M5054 2043 c5 -10 -3 -13 -28 -13 -20 0 -36 -4 -36 -8 0 -4 17 -6 38
-4 54 5 56 6 36 22 -11 9 -15 10 -10 3z"/>
        <path d="M6461 2018 c-10 -30 -9 -31 4 -14 8 11 15 26 15 33 0 22 -8 14 -19
-19z"/>
        <path d="M4945 2030 c-3 -5 -1 -10 4 -10 6 0 11 5 11 10 0 6 -2 10 -4 10 -3 0
-8 -4 -11 -10z"/>
        <path d="M6383 2023 c-3 -10 -8 -21 -10 -25 -10 -19 6 -5 21 17 9 14 12 25 6
25 -6 0 -13 -8 -17 -17z"/>
        <path d="M3635 1980 c-3 -5 -1 -10 4 -10 6 0 11 5 11 10 0 6 -2 10 -4 10 -3 0
-8 -4 -11 -10z"/>
        <path d="M3688 1973 c18 -2 45 -2 60 0 15 2 0 4 -33 4 -33 0 -45 -2 -27 -4z"/>
        <path d="M6335 1973 c11 -3 33 -19 49 -37 19 -21 25 -24 17 -9 -6 12 -16 25
-23 29 -8 5 -6 10 8 15 13 5 4 7 -26 7 -25 0 -36 -3 -25 -5z"/>
        <path d="M6425 1958 c11 -6 29 -18 39 -27 18 -15 18 -15 8 5 -11 21 -33 34
-55 34 -7 0 -3 -6 8 -12z"/>
        <path d="M5010 1949 c0 -5 19 -9 42 -9 49 0 47 5 -4 13 -21 3 -38 2 -38 -4z"/>
        <path d="M3651 1936 c23 -9 147 -10 137 -1 -2 2 -39 6 -83 8 -66 4 -75 3 -54
-7z"/>
        <path d="M6335 1940 c-3 -5 -1 -10 4 -10 6 0 11 5 11 10 0 6 -2 10 -4 10 -3 0
-8 -4 -11 -10z"/>
        <path d="M3661 1916 c3 -3 21 -16 42 -30 31 -21 37 -23 37 -9 0 9 -3 13 -6 10
-4 -4 -19 2 -34 13 -24 17 -51 28 -39 16z"/>
        <path d="M4932 1915 c8 -9 88 -12 88 -3 0 4 -21 8 -47 8 -25 0 -44 -2 -41 -5z"/>
        <path d="M3634 1891 c3 -5 16 -11 28 -14 22 -6 22 -5 4 8 -22 17 -40 20 -32 6z"/>
        <path d="M2353 1883 c20 -2 54 -2 75 0 20 2 3 4 -38 4 -41 0 -58 -2 -37 -4z"/>
        <path d="M3760 1880 c0 -5 5 -10 11 -10 5 0 7 5 4 10 -3 6 -8 10 -11 10 -2 0
-4 -4 -4 -10z"/>
        <path d="M5040 1880 l-35 -7 43 -2 c27 0 41 3 37 9 -3 6 -7 9 -8 9 -1 -1 -18
-5 -37 -9z"/>
        <path d="M6368 1839 c-15 -16 -23 -29 -18 -29 5 0 11 4 14 9 7 11 86 2 104
-12 8 -6 12 -6 12 1 0 13 -25 22 -61 22 -26 0 -29 3 -24 20 8 25 6 24 -27 -11z"/>
        <path d="M4940 1857 c0 -3 18 -14 40 -25 24 -11 36 -14 30 -6 -9 10 -2 14 37
17 45 3 44 4 -14 5 -34 1 -68 5 -77 8 -9 3 -16 4 -16 1z"/>
        <path d="M3690 1815 c0 -17 -16 -20 -25 -5 -3 6 -12 10 -18 10 -7 0 -4 -7 7
-15 20 -15 13 -37 -9 -28 -23 8 -18 -5 6 -18 13 -7 19 -7 15 -1 -10 16 15 26
26 11 6 -10 7 -6 2 11 -6 20 -4 23 7 15 8 -6 29 -10 47 -9 52 3 51 14 -1 14
-27 0 -47 5 -47 11 0 5 5 7 10 4 6 -3 10 -1 10 4 0 6 -7 11 -15 11 -8 0 -15
-7 -15 -15z"/>
        <path d="M2355 1791 c33 -3 67 -10 75 -14 8 -5 6 -1 -4 7 -14 11 -38 16 -75
14 l-56 -1 60 -6z"/>
        <path d="M6390 1779 c0 -5 8 -9 18 -9 10 0 29 -8 42 -17 22 -15 23 -15 12 -1
-16 20 -72 41 -72 27z"/>
        <path d="M4981 1768 c0 -9 -7 -19 -13 -22 -7 -3 3 -5 22 -4 40 2 63 -8 57 -26
-3 -6 3 -12 13 -12 10 0 18 7 18 16 0 8 3 26 6 40 6 25 6 25 -5 3 -13 -25 -24
-29 -34 -13 -3 6 -17 7 -30 4 -17 -4 -24 -1 -28 13 -4 15 -5 15 -6 1z"/>
        <path d="M6330 1773 c1 -4 17 -18 36 -30 19 -13 32 -19 29 -13 -9 15 -65 52
-65 43z"/>
        <path d="M2353 1763 c15 -2 37 -2 50 0 12 2 0 4 -28 4 -27 0 -38 -2 -22 -4z"/>
        <path d="M3735 1750 c3 -5 -3 -10 -14 -10 -11 0 -22 -4 -25 -9 -4 -5 3 -7 14
-4 14 4 20 0 20 -10 0 -12 -13 -17 -52 -20 -33 -2 -21 -4 32 -4 47 0 74 2 60
6 -23 6 -39 41 -18 41 5 0 6 5 3 10 -3 6 -11 10 -16 10 -6 0 -7 -4 -4 -10z"/>
        <path d="M3635 1730 c3 -5 14 -10 23 -10 15 0 15 2 2 10 -20 13 -33 13 -25 0z"/>
        <path d="M4938 1713 c7 -3 16 -2 19 1 4 3 -2 6 -13 5 -11 0 -14 -3 -6 -6z"/>
        <path d="M2310 1703 c0 -5 32 -8 70 -8 39 0 70 3 70 8 0 4 -31 7 -70 7 -38 0
-70 -3 -70 -7z"/>
        <path d="M4969 1699 c-10 -6 -4 -9 19 -9 17 0 32 2 32 4 0 9 -39 13 -51 5z"/>
        <path d="M2363 1663 c9 -2 25 -2 35 0 9 3 1 5 -18 5 -19 0 -27 -2 -17 -5z"/>
        <path d="M4951 1656 c2 -2 31 -6 64 -9 37 -3 51 -2 35 3 -25 8 -107 13 -99 6z"/>
        <path d="M6061 1644 c0 -11 3 -14 6 -6 3 7 2 16 -1 19 -3 4 -6 -2 -5 -13z"/>
        <path d="M2363 1613 c9 -2 25 -2 35 0 9 3 1 5 -18 5 -19 0 -27 -2 -17 -5z"/>
        <path d="M4950 1600 c0 -5 5 -10 11 -10 5 0 7 5 4 10 -3 6 -8 10 -11 10 -2 0
-4 -4 -4 -10z"/>
        <path d="M2310 1580 c0 -6 32 -10 76 -10 47 0 73 4 69 10 -3 6 -37 10 -76 10
-39 0 -69 -4 -69 -10z"/>
        <path d="M6681 1574 c0 -11 3 -14 6 -6 3 7 2 16 -1 19 -3 4 -6 -2 -5 -13z"/>
        <path d="M5053 1573 c9 -2 23 -2 30 0 6 3 -1 5 -18 5 -16 0 -22 -2 -12 -5z"/>
        <path d="M6062 1560 c0 -14 2 -19 5 -12 2 6 2 18 0 25 -3 6 -5 1 -5 -13z"/>
        <path d="M4970 1563 c0 -6 5 -15 11 -19 8 -4 7 -9 -2 -16 -11 -8 -10 -9 4 -4
9 3 17 1 17 -4 0 -6 -6 -10 -12 -11 -7 0 -4 -4 7 -8 11 -5 23 -7 28 -4 10 6 9
61 -2 67 -4 3 -6 -7 -4 -22 l4 -27 -25 30 c-14 17 -26 25 -26 18z"/>
        <path d="M4935 1530 c-3 -5 1 -10 9 -10 9 0 16 5 16 10 0 6 -4 10 -9 10 -6 0
-13 -4 -16 -10z"/>
        <path d="M5040 1529 c0 -5 9 -9 20 -9 11 0 20 2 20 4 0 2 -9 6 -20 9 -11 3
-20 1 -20 -4z"/>
        <path d="M5050 1478 c0 -4 7 -8 15 -8 8 0 15 4 15 8 0 5 -7 9 -15 9 -8 0 -15
-4 -15 -9z"/>
        <path d="M4958 1463 c7 -3 16 -2 19 1 4 3 -2 6 -13 5 -11 0 -14 -3 -6 -6z"/>
        <path d="M6350 1345 c7 -8 18 -15 25 -15 7 0 18 7 25 15 11 13 7 15 -25 15
-32 0 -36 -2 -25 -15z"/>
        <path d="M6040 1284 c0 -8 7 -22 15 -30 8 -9 15 -30 15 -48 0 -19 -7 -39 -15
-46 -8 -7 -15 -19 -15 -27 0 -8 -10 -23 -22 -33 -22 -18 -23 -18 -4 -39 17
-19 17 -21 3 -21 -13 0 -17 -10 -17 -45 l0 -45 -320 0 -320 0 0 -140 0 -140
980 0 980 0 0 140 0 140 -285 0 -285 0 0 45 c0 35 -4 45 -17 45 -14 0 -14 2 3
21 19 21 18 21 -4 39 -12 10 -22 25 -22 33 0 8 -7 20 -15 27 -8 7 -15 27 -15
46 0 18 7 39 15 48 8 8 15 22 15 30 0 14 -37 16 -335 16 -298 0 -335 -2 -335
-16z m403 -500 c-6 -55 -6 -56 15 -43 17 11 22 25 23 59 l2 45 6 -39 c5 -35 7
-38 20 -23 7 10 18 17 24 17 6 0 -2 -13 -17 -29 -15 -16 -26 -37 -24 -47 4
-24 38 -32 38 -9 0 9 5 13 10 10 24 -15 9 -35 -25 -35 -31 0 -35 3 -35 25 0
23 -2 24 -20 15 -11 -6 -20 -17 -20 -25 0 -8 -4 -15 -10 -15 -5 0 -10 16 -10
36 0 23 -4 33 -11 28 -8 -5 -8 -1 0 14 6 11 15 32 21 46 15 40 19 31 13 -30z
m-168 26 c-5 -16 -2 -20 14 -20 15 0 21 7 22 23 l2 22 4 -22 c3 -17 12 -23 31
-24 17 -1 21 -3 10 -6 -23 -6 -26 -83 -4 -83 8 0 17 8 19 18 4 13 5 11 6 -5 1
-18 -4 -23 -24 -23 -23 0 -25 4 -26 48 l-1 47 -10 -35 c-11 -40 -36 -72 -52
-67 -6 2 -9 23 -7 47 3 41 2 43 -15 29 -9 -7 -15 -9 -12 -4 2 6 11 25 18 43
16 35 35 45 25 12z m91 -7 c-7 -7 -26 7 -26 19 0 6 6 6 15 -2 9 -7 13 -15 11
-17z"/>
        <path d="M6270 733 c1 -44 2 -47 15 -29 8 11 15 25 15 32 0 7 3 19 6 28 4 12
0 16 -15 16 -18 0 -21 -6 -21 -47z"/>
        <path d="M1420 810 l0 -140 980 0 980 0 0 140 0 140 -980 0 -980 0 0 -140z
m486 35 c-4 -12 3 -15 29 -15 l35 0 0 -60 c0 -50 -3 -60 -17 -60 -13 0 -14 3
-5 12 7 7 12 31 12 55 l0 43 -50 0 -49 0 -4 -57 -3 -58 -2 63 c-2 56 0 62 18
62 11 0 20 7 20 15 0 8 5 15 11 15 6 0 9 -7 5 -15z m232 -38 c9 -2 -18 -6 -61
-8 -42 -2 -77 -1 -77 4 0 4 7 7 15 7 8 0 15 9 15 19 0 16 8 20 43 23 37 3 42
0 45 -19 2 -12 11 -24 20 -26z m125 13 c3 -10 6 -7 6 8 1 12 6 22 12 22 6 0 9
-7 5 -15 -3 -9 0 -15 9 -15 16 0 17 -11 6 -50 -5 -17 -3 -31 7 -42 9 -11 11
-18 4 -18 -6 0 -14 5 -17 11 -5 7 -15 5 -32 -6 -14 -9 -27 -14 -31 -11 -3 3
-1 6 5 6 6 0 8 12 5 26 l-5 27 -13 -25 c-23 -43 -42 -42 -46 3 -4 42 3 61 36
94 22 22 36 17 49 -15z m129 22 c-17 -5 -15 -29 3 -29 8 0 15 6 15 14 0 8 13
13 35 13 33 0 35 -2 35 -35 0 -33 -2 -35 -35 -35 -24 0 -35 5 -35 15 0 8 -8
15 -17 15 -13 0 -14 -3 -5 -12 15 -15 16 -32 2 -23 -6 4 -10 -7 -10 -24 0 -17
-5 -31 -10 -31 -6 0 -8 11 -4 25 4 15 2 25 -5 25 -6 0 -11 -5 -11 -12 0 -6 -3
-9 -6 -6 -3 4 0 16 6 28 10 18 9 24 -1 31 -11 7 -10 9 4 9 9 0 17 5 17 10 0 6
-8 10 -17 10 -14 1 -12 4 7 14 14 8 29 12 34 8 6 -3 5 -7 -2 -10z m237 -36
c17 -19 20 -27 10 -23 -13 4 -18 -3 -23 -34 -5 -28 -11 -39 -24 -38 -10 0 -12
3 -4 6 16 6 16 63 -1 63 -7 0 -18 -13 -24 -29 -6 -16 -21 -35 -34 -41 l-24
-13 21 24 c40 45 37 67 -8 60 -4 0 2 15 13 34 12 19 25 35 31 35 10 0 3 -16
-20 -42 -14 -17 -12 -18 28 -18 36 0 41 2 35 18 -4 9 -9 26 -11 37 -3 12 -2
14 2 5 4 -8 18 -28 33 -44z m-429 40 c0 -2 -7 -9 -15 -16 -13 -11 -14 -10 -9
4 5 14 24 23 24 12z m-260 -75 c0 -25 -3 -28 -30 -27 -26 1 -30 5 -30 29 0 23
4 27 30 27 26 0 30 -3 30 -29z m182 -11 c4 -26 1 -30 -21 -31 -18 -1 -14 -4
14 -9 31 -6 23 -7 -40 -7 -63 0 -71 1 -40 7 31 6 34 7 13 9 -24 1 -28 5 -28
31 0 29 1 30 49 30 47 0 49 -1 53 -30z m318 -3 c0 -2 -12 -14 -26 -28 l-27
-24 18 28 c14 22 35 36 35 24z m40 -28 c6 -10 7 -19 2 -19 -5 0 -14 12 -20 26
-14 29 2 24 18 -7z"/>
        <path d="M2058 823 c12 -2 30 -2 40 0 9 3 -1 5 -23 4 -22 0 -30 -2 -17 -4z"/>
        <path d="M2201 761 c1 -30 3 -36 6 -18 5 29 26 36 48 13 11 -10 11 -16 2 -27
-10 -11 -9 -11 4 -1 27 20 12 52 -25 53 l-31 1 30 7 30 7 -32 5 -33 6 1 -46z"/>
        <path d="M2282 790 c0 -14 2 -19 5 -12 2 6 2 18 0 25 -3 6 -5 1 -5 -13z"/>
        <path d="M2420 805 c0 -18 5 -25 20 -25 15 0 20 7 20 25 0 18 -5 25 -20 25
-15 0 -20 -7 -20 -25z"/>
        <path d="M1890 775 c0 -8 7 -15 15 -15 8 0 15 7 15 15 0 8 -7 15 -15 15 -8 0
-15 -7 -15 -15z"/>
        <path d="M2048 773 c7 -3 16 -2 19 1 4 3 -2 6 -13 5 -11 0 -14 -3 -6 -6z"/>
        <path d="M2088 773 c7 -3 16 -2 19 1 4 3 -2 6 -13 5 -11 0 -14 -3 -6 -6z"/>
        <path d="M2048 743 c7 -3 16 -2 19 1 4 3 -2 6 -13 5 -11 0 -14 -3 -6 -6z"/>
        <path d="M2088 743 c7 -3 16 -2 19 1 4 3 -2 6 -13 5 -11 0 -14 -3 -6 -6z"/>
        <path d="M3390 810 l0 -140 980 0 980 0 0 140 0 140 -980 0 -980 0 0 -140z
m561 10 c5 0 9 6 9 14 0 17 32 15 38 -2 2 -7 8 -12 13 -12 6 0 8 4 5 9 -3 5 3
11 14 14 11 3 20 1 20 -4 0 -5 -4 -9 -10 -9 -18 0 -11 -40 8 -41 14 -1 14 -2
1 -6 -11 -3 -14 -12 -11 -33 2 -17 8 -27 13 -24 5 3 9 0 9 -5 0 -6 -9 -11 -20
-11 -12 0 -20 7 -20 17 0 14 -5 12 -27 -8 -16 -13 -22 -17 -15 -9 17 20 15 35
-3 20 -13 -11 -15 -8 -15 13 0 46 -20 41 -22 -5 -1 -38 -2 -39 -5 -10 -4 29
-6 32 -20 20 -15 -12 -15 -11 -4 11 7 12 11 32 8 42 -3 10 -1 19 4 19 5 0 10
10 10 23 l2 22 4 -22 c2 -13 9 -23 14 -23z m205 31 c5 -5 20 -11 34 -14 21 -4
20 -4 -7 -6 -17 0 -35 -6 -39 -13 -5 -8 -2 -9 9 -5 22 8 22 -1 0 -25 -16 -18
-16 -19 11 -8 29 11 46 6 46 -12 0 -7 -6 -6 -15 2 -10 9 -15 9 -15 1 0 -6 -8
-12 -17 -12 -10 -1 0 -5 22 -9 l40 -7 -37 -2 c-32 -1 -38 -5 -39 -23 l-2 -23
-4 23 c-4 18 -12 22 -41 24 l-37 1 39 4 c27 3 35 7 26 13 -11 7 -11 12 -2 23
9 11 8 14 -3 14 -8 0 -13 -3 -10 -5 7 -7 -15 -32 -27 -32 -6 0 -6 6 1 14 6 7
8 21 5 31 -6 14 -3 16 14 10 13 -3 22 -2 22 4 0 5 -12 12 -27 14 -26 4 -25 4
5 6 19 0 31 5 27 11 -8 13 8 13 21 1z m180 -28 c24 2 44 1 44 -4 0 -5 -20 -9
-45 -9 -25 0 -45 -4 -45 -10 0 -5 20 -10 45 -10 l45 0 -7 -32 c-7 -39 -22 -60
-35 -52 -6 4 -4 10 6 16 9 5 16 20 16 33 0 23 -4 25 -45 25 -48 0 -53 7 -38
60 l8 25 3 -24 c3 -21 7 -23 48 -18z m203 -22 c25 -22 25 -23 4 -18 -20 5 -23
1 -23 -28 0 -33 -23 -64 -34 -46 -3 5 -2 11 2 13 5 1 12 15 16 31 5 21 3 27
-9 27 -9 0 -18 -8 -22 -17 -8 -23 -34 -53 -45 -53 -5 0 0 10 12 22 32 35 25
54 -18 49 -9 -2 -5 10 10 31 12 18 24 35 25 37 2 2 6 2 9 -1 3 -4 -2 -18 -11
-32 l-17 -26 37 0 c31 0 36 3 30 18 -4 9 -9 26 -12 37 l-4 20 11 -20 c7 -11
24 -31 39 -44z m115 37 c-4 -7 6 -9 30 -6 20 2 36 1 36 -3 0 -5 -19 -9 -42
-11 l-43 -3 -3 -47 c-3 -50 -22 -68 -22 -22 0 24 -2 25 -17 13 -12 -10 -10 -4
5 18 27 39 27 41 0 46 -20 4 -19 4 5 6 15 0 30 8 33 16 4 8 10 12 15 9 5 -3 6
-10 3 -16z m-449 -28 c-3 -5 -11 -10 -16 -10 -6 0 -7 5 -4 10 3 6 11 10 16 10
6 0 7 -4 4 -10z m465 -55 c0 -30 -4 -55 -10 -55 -5 0 -10 25 -10 55 0 30 5 55
10 55 6 0 10 -25 10 -55z m40 5 c0 -38 -12 -52 -25 -30 -3 6 -1 10 6 10 7 0 9
10 6 30 -4 17 -2 30 3 30 6 0 10 -18 10 -40z m-382 -7 c-16 -2 -40 -2 -55 0
-16 2 -3 4 27 4 30 0 43 -2 28 -4z"/>
        <path d="M3945 800 c3 -5 8 -10 11 -10 2 0 4 5 4 10 0 6 -5 10 -11 10 -5 0 -7
-4 -4 -10z"/>
        <path d="M3983 773 c-20 -7 -15 -19 7 -19 11 0 22 6 24 13 5 13 -8 16 -31 6z"/>
        <path d="M1060 520 l0 -140 1100 0 1100 0 0 140 0 140 -1100 0 -1100 0 0 -140z
m947 20 c13 0 13 3 3 15 -8 10 -9 15 -2 15 6 0 16 -9 22 -20 9 -18 8 -20 -15
-20 -14 0 -25 -5 -25 -11 0 -7 10 -9 25 -5 29 7 31 -1 9 -32 -8 -12 -12 -27
-8 -34 5 -8 10 -6 15 8 6 16 8 14 8 -10 1 -28 1 -28 -24 -12 -19 12 -30 14
-44 6 -11 -5 -23 -10 -28 -10 -4 1 4 7 19 15 19 11 25 20 21 35 -6 24 -3 24
-42 4 -35 -18 -51 -13 -32 10 9 10 9 15 1 18 -13 4 7 58 22 58 5 0 4 -9 -2
-19 -15 -29 -12 -39 5 -17 8 11 18 17 22 13 3 -4 -2 -16 -12 -27 -10 -11 -16
-23 -13 -26 8 -8 48 19 47 31 -1 5 0 21 1 35 3 24 3 24 7 3 2 -13 11 -23 20
-23z m93 20 c0 -22 15 -27 26 -8 5 8 10 6 15 -8 7 -18 8 -17 8 3 1 32 21 39
21 8 0 -20 4 -26 15 -22 8 4 17 2 20 -3 4 -6 -3 -10 -14 -10 -12 0 -21 -7 -21
-15 0 -9 6 -12 15 -9 8 4 15 1 15 -5 0 -6 -7 -11 -15 -11 -8 0 -15 -9 -15 -21
0 -16 4 -19 20 -14 11 4 20 2 20 -4 0 -7 -21 -10 -52 -10 -29 1 -43 4 -30 6
23 5 32 42 10 44 -10 0 -10 2 0 6 14 5 17 33 2 33 -5 0 -14 -8 -20 -17 -11
-17 -11 -17 -6 0 3 9 1 17 -4 17 -6 0 -10 -20 -10 -45 0 -25 -4 -45 -10 -45
-5 0 -10 15 -10 34 0 19 -6 36 -12 39 -10 4 -10 7 0 18 6 7 12 23 12 36 0 13
5 23 10 23 6 0 10 -9 10 -20z m170 -65 c-5 -61 -7 -68 -8 -31 -2 44 -4 47 -19
35 -15 -13 -15 -12 -5 8 7 12 17 34 22 49 16 40 18 27 10 -61z m189 63 c1 6 5
12 11 12 5 0 7 -7 4 -15 -4 -8 -1 -15 5 -15 6 0 11 9 11 20 0 11 5 20 11 20 6
0 8 -9 4 -20 -5 -17 -2 -20 22 -20 15 0 23 -4 17 -8 -6 -4 -14 -24 -18 -44 -5
-29 -3 -39 11 -47 16 -9 16 -10 1 -11 -9 0 -20 4 -23 10 -4 6 -16 3 -31 -7
-20 -13 -24 -13 -22 -2 3 14 -2 15 -32 6 -8 -2 -12 -2 -7 0 11 7 8 20 -9 38
-15 15 -15 17 1 35 17 19 17 20 -1 21 -10 0 -14 3 -7 5 7 3 10 13 7 22 -5 14
-2 13 10 -2 16 -19 16 -19 17 5 0 22 1 23 9 4 5 -11 9 -14 9 -7z m-131 -30 c3
-52 30 -98 43 -77 6 10 9 8 9 -8 0 -13 -3 -23 -7 -23 -15 0 -53 45 -53 62 0
10 -10 23 -22 28 -18 7 -19 9 -5 9 11 1 17 9 17 26 0 42 15 28 18 -17z m42 20
c0 -13 -23 -5 -28 10 -2 7 2 10 12 6 9 -3 16 -11 16 -16z m-435 -98 c-28 -12
-37 -12 -30 0 3 6 16 10 28 9 21 0 21 -1 2 -9z"/>
        <path d="M2000 489 c0 -5 5 -7 10 -4 6 3 10 8 10 11 0 2 -4 4 -10 4 -5 0 -10
-5 -10 -11z"/>
        <path d="M2500 509 c0 -11 5 -17 10 -14 6 3 10 13 10 21 0 8 -4 14 -10 14 -5
0 -10 -9 -10 -21z"/>
        <path d="M2415 500 c-3 -5 -2 -10 4 -10 5 0 13 5 16 10 3 6 2 10 -4 10 -5 0
-13 -4 -16 -10z"/>
        <path d="M2450 498 c0 -4 5 -8 10 -8 6 0 10 -9 10 -19 0 -23 16 -36 25 -22 11
19 -6 57 -26 57 -10 0 -19 -4 -19 -8z"/>
        <path d="M2440 469 c0 -5 5 -7 10 -4 6 3 10 8 10 11 0 2 -4 4 -10 4 -5 0 -10
-5 -10 -11z"/>
        <path d="M3270 520 l0 -140 1100 0 1100 0 0 140 0 140 -1100 0 -1100 0 0 -140z
m994 8 c7 -5 6 -8 -3 -8 -12 0 -12 -3 -3 -12 15 -15 16 -32 2 -23 -6 4 -11
-11 -12 -37 -1 -38 -2 -39 -5 -10 -4 27 -7 31 -18 22 -12 -10 -12 -6 -2 20 10
25 9 33 -3 40 -13 8 -12 10 3 10 11 0 17 8 18 23 1 20 2 20 6 2 3 -11 10 -23
17 -27z m86 32 c0 -5 -11 -10 -25 -10 -19 0 -25 -5 -25 -21 0 -18 5 -21 30
-17 17 3 30 1 30 -4 0 -4 -4 -8 -10 -8 -5 0 -10 -18 -10 -40 0 -22 -4 -40 -10
-40 -5 0 -10 18 -10 41 0 46 -23 51 -28 6 -2 -14 -10 -31 -19 -39 -15 -12 -15
-11 -5 9 7 12 12 45 12 74 0 29 3 50 6 47 4 -5 28 0 62 11 1 1 2 -3 2 -9z
m305 -11 c27 0 44 -3 38 -6 -9 -3 -13 -26 -13 -63 0 -62 -7 -75 -30 -59 -10 6
-11 9 -2 9 8 0 12 18 12 54 l0 54 -35 4 c-41 5 -44 -1 -47 -80 l-2 -57 -3 48
c-2 26 -8 45 -13 42 -5 -3 -1 13 7 35 11 28 20 37 27 30 5 -5 33 -10 61 -11z
m-570 1 c-4 -6 1 -7 11 -3 13 5 16 3 11 -10 -4 -11 -1 -17 8 -17 20 0 30 21
14 31 -10 6 -2 9 24 9 30 0 37 -4 37 -19 0 -10 -7 -25 -16 -32 -14 -12 -14
-14 3 -20 16 -7 16 -8 1 -8 -10 -1 -18 -6 -18 -12 0 -6 7 -9 15 -6 8 4 17 2
20 -3 4 -6 -3 -10 -14 -10 -15 0 -21 -7 -22 -22 l-2 -23 -4 23 c-5 27 -29 29
-36 2 -7 -26 -37 -16 -37 14 -1 20 -1 20 -14 -3 -12 -22 -13 -20 -11 25 2 57
12 94 26 94 6 0 7 -4 4 -10z m405 -57 c0 -35 4 -63 10 -63 6 0 10 5 10 10 0 6
5 10 10 10 6 0 10 -7 10 -16 0 -11 -8 -14 -27 -12 -27 3 -28 6 -31 61 -3 49
-6 57 -22 57 -17 0 -20 -7 -20 -43 0 -35 -5 -48 -27 -68 -26 -22 -26 -22 -9
-1 12 13 21 43 24 75 4 51 4 52 38 53 l34 1 0 -64z m160 -4 c0 -25 -3 -30 -17
-25 -9 4 -20 1 -25 -6 -5 -8 -8 1 -8 25 0 33 3 37 25 37 21 0 25 -5 25 -31z"/>
        <path d="M4150 541 c0 -5 -3 -18 -7 -28 -6 -16 -5 -16 10 -4 19 15 23 41 7 41
-5 0 -10 -4 -10 -9z"/>
        <path d="M4125 470 c-3 -5 1 -10 9 -10 9 0 16 5 16 10 0 6 -4 10 -9 10 -6 0
-13 -4 -16 -10z"/>
        <path d="M4091 444 c0 -11 3 -14 6 -6 3 7 2 16 -1 19 -3 4 -6 -2 -5 -13z"/>
        <path d="M4610 495 c0 -8 5 -15 10 -15 6 0 10 7 10 15 0 8 -4 15 -10 15 -5 0
-10 -7 -10 -15z"/>
        <path d="M5490 520 l0 -140 1100 0 1100 0 0 140 0 140 -1100 0 -1100 0 0 -140z
m841 33 c10 3 19 1 19 -4 0 -5 -11 -9 -24 -9 -13 0 -26 -7 -30 -15 -3 -8 -1
-15 4 -15 6 0 10 6 10 13 0 8 3 9 8 1 4 -6 14 -14 22 -17 12 -4 11 -6 -2 -6
-10 -1 -18 -8 -18 -17 0 -11 6 -14 20 -9 11 4 20 2 20 -4 0 -6 -9 -11 -20 -11
-14 0 -20 -7 -21 -22 -2 -23 -2 -23 -6 -1 -3 16 -13 22 -43 25 -35 3 -39 1
-43 -22 -2 -14 -5 9 -6 50 -1 72 0 76 22 76 12 0 25 -5 30 -10 5 -7 12 -4 19
9 12 19 13 19 16 2 3 -13 10 -17 23 -14z m-256 7 c-7 -12 14 -12 73 -1 23 5
42 4 42 0 0 -5 -13 -9 -30 -9 -16 0 -30 -4 -30 -10 0 -5 11 -10 25 -10 21 0
25 -5 25 -29 0 -25 -3 -28 -25 -23 -20 3 -25 0 -25 -16 0 -17 8 -22 38 -25 35
-3 35 -4 -9 -5 -45 -2 -46 -2 -41 28 3 24 1 30 -14 30 -14 0 -15 -3 -6 -12 7
-7 12 -16 12 -22 0 -6 -5 -5 -11 1 -9 9 -17 6 -31 -10 l-18 -22 12 28 c10 23
9 30 -3 38 -10 6 -10 9 -1 9 6 0 12 10 12 23 0 18 -2 19 -10 7 -6 -9 -10 -10
-10 -3 0 19 12 43 22 43 5 0 6 -4 3 -10z m351 -25 l-16 -25 36 0 c35 0 35 1
30 33 -3 17 -3 25 0 17 3 -8 18 -25 32 -37 26 -22 26 -23 5 -23 -17 0 -22 -7
-25 -32 -2 -24 -9 -34 -23 -36 -18 -2 -18 -2 -2 8 20 13 23 60 3 60 -7 0 -19
-13 -26 -29 -6 -16 -18 -32 -25 -35 -10 -3 -9 3 3 25 15 25 15 31 2 39 -8 5
-19 6 -25 2 -5 -3 -3 5 6 18 8 14 19 31 23 38 5 7 10 11 13 8 3 -3 -2 -17 -11
-31z m164 24 c0 -5 5 -7 12 -3 8 5 9 2 5 -10 -5 -13 -3 -17 11 -14 9 2 16 11
16 21 -1 12 6 17 27 17 24 0 29 -4 29 -24 0 -13 -6 -27 -12 -29 -10 -4 -9 -8
2 -16 10 -7 11 -11 3 -11 -7 0 -13 -4 -13 -10 0 -5 7 -7 15 -4 8 4 15 1 15 -5
0 -6 -7 -11 -15 -11 -8 0 -15 -7 -15 -15 0 -8 -4 -15 -10 -15 -5 0 -10 7 -10
15 0 22 -27 18 -33 -5 -7 -26 -37 -16 -38 14 0 21 0 21 -9 -1 -5 -13 -11 -23
-12 -23 -6 0 0 97 7 119 7 22 25 29 25 10z"/>
        <path d="M6230 515 c0 -19 4 -35 9 -35 5 0 9 16 8 35 -3 46 -17 46 -17 0z"/>
        <path d="M6256 535 c-8 -21 17 -65 37 -65 9 0 17 7 17 15 0 8 -9 15 -20 15
-17 0 -19 3 -11 19 8 14 7 20 -3 24 -8 3 -17 0 -20 -8z"/>
        <path d="M6090 520 c0 -13 5 -18 15 -14 8 4 15 12 15 20 0 8 -7 14 -15 14 -8
0 -15 -9 -15 -20z"/>
        <path d="M6130 506 c0 -10 9 -16 21 -16 24 0 21 23 -4 28 -10 2 -17 -3 -17
-12z"/>
        <path d="M6643 534 c-28 -32 -30 -51 -3 -24 11 11 25 20 30 20 6 0 10 7 10 15
0 22 -12 18 -37 -11z"/>
        <path d="M6635 480 c-3 -5 -1 -10 4 -10 6 0 11 5 11 10 0 6 -2 10 -4 10 -3 0
-8 -4 -11 -10z"/>
        <path d="M6601 454 c0 -11 3 -14 6 -6 3 7 2 16 -1 19 -3 4 -6 -2 -5 -13z"/>
    </g>
</svg>
